<?xml version="1.0" encoding="UTF-8"?>
<!DOCTYPE svg PUBLIC "-//W3C//DTD SVG 1.1//EN" "http://www.w3.org/Graphics/SVG/1.1/DTD/svg11.dtd">
<!-- Creator: CorelDRAW X8 -->
<svg xmlns="http://www.w3.org/2000/svg" xml:space="preserve" width="27.7577mm" height="27.7578mm" version="1.1" style="shape-rendering:geometricPrecision; text-rendering:geometricPrecision; image-rendering:optimizeQuality; fill-rule:evenodd; clip-rule:evenodd"
viewBox="0 0 881 881"
 xmlns:xlink="http://www.w3.org/1999/xlink">
 <defs>
  <style type="text/css">
   <![CDATA[
    .str1 {stroke:#373435;stroke-width:6.34674}
    .str0 {stroke:#373435;stroke-width:2.41811}
    .str2 {stroke:#5CC6D0;stroke-width:2.41811}
    .str3 {stroke:#448C8E;stroke-width:2.41811}
    .fil0 {fill:none}
    .fil1 {fill:#5CC6D0}
    .fil2 {fill:#448C8E}
    .fil5 {fill:#F7FCFC}
    .fil3 {fill:#FAFDFD}
    .fil4 {fill:#FBFDFD}
   ]]>
  </style>
 </defs>
 <g id="Capa_x0020_1">
  <metadata id="CorelCorpID_0Corel-Layer"/>
  <g id="_2133891188576">
   <circle class="fil0 str0" cx="440" cy="440" r="439"/>
   <path class="fil0 str1" d="M22 575c235,-168 592,-174 833,10"/>
   <path class="fil1 str2" d="M22 575c235,-168 592,-174 833,10 16,-45 25,-94 25,-145 0,-242 -197,-439 -440,-439 -242,0 -439,197 -439,439 0,47 8,92 21,135z"/>
   <path class="fil2 str3" d="M855 585c-241,-184 -598,-178 -833,-10 57,177 223,305 418,305 192,0 356,-124 415,-295z"/>
  </g>
  <path class="fil3" d="M159 468l80 -1 -1 182 -80 0 1 -181zm104 151c-12,-18 -7,-102 -4,-128 23,-9 106,-9 124,2 56,10 46,47 71,52 36,0 84,-4 112,6l1 30c-34,13 -116,6 -160,6 2,30 -6,21 82,20 37,0 58,4 89,-10 29,-12 118,-62 140,-55 22,16 -9,33 -26,42l-167 91c-52,28 -81,6 -131,-11 -41,-14 -93,-28 -131,-45zm3 24c61,19 119,41 179,61 44,14 61,4 94,-14l154 -84c26,-15 61,-23 51,-59 -18,-66 -117,10 -155,21 -17,-65 -65,-37 -130,-45 -26,-23 -25,-40 -70,-51 -28,-6 -86,-3 -118,-3 -9,-2 -4,-3 -14,-13 -7,-7 0,-5 -11,-9l-106 2c-5,49 -8,175 2,219 139,9 107,-3 124,-25z"/>
  <path class="fil4" d="M563 425l54 -3 0 45 -54 -1 0 -41zm-20 40l-50 2 -1 -243 189 0 0 243 -44 -1c-2,-66 22,-62 -77,-62 -26,0 -16,6 -17,61zm2 -259c-29,0 -24,5 -30,-12 8,-5 -9,-2 14,-5 24,-3 119,-3 130,5 -5,17 -10,12 -33,12l-81 0zm-50 -12c-9,21 19,-17 -10,11 -13,12 -4,-16 -12,14l0 238c-12,30 -25,-12 -26,26 42,7 232,5 282,1 -1,-23 -1,-17 -27,-17l-1 -257 -23 -7c0,-4 1,-11 0,-14l-5 -18 -172 -1 -6 24z"/>
  <path class="fil5" d="M513 341c11,14 36,8 77,8 80,0 70,8 72,-19 -25,0 -51,0 -77,0l-61 0c-16,5 -3,1 -11,11z"/>
  <path class="fil4" d="M513 295c11,15 30,9 72,9l61 0c25,-3 8,4 16,-9 -4,-8 5,-11 -31,-11l-81 1c-2,-1 -20,-1 -21,-1 -27,5 -5,0 -16,11z"/>
  <path class="fil4" d="M513 386c16,13 132,8 133,8 27,-5 5,1 16,-8 -3,-9 5,-12 -31,-12l-81 0c-50,-1 -28,1 -37,12z"/>
  <path class="fil4" d="M513 250c4,8 -3,10 32,9 13,0 27,0 40,0l61 1c27,-4 8,4 16,-10 -6,-11 2,-6 -11,-9 -1,-1 -18,-1 -20,-1l-102 0c-33,5 -7,2 -16,10z"/>
 </g>
</svg>
