<?xml version="1.0" encoding="UTF-8"?>
<!DOCTYPE svg PUBLIC "-//W3C//DTD SVG 1.1//EN" "http://www.w3.org/Graphics/SVG/1.1/DTD/svg11.dtd">
<!-- Creator: CorelDRAW X8 -->
<svg xmlns="http://www.w3.org/2000/svg" xml:space="preserve" width="27.7577mm" height="27.7578mm" version="1.1" style="shape-rendering:geometricPrecision; text-rendering:geometricPrecision; image-rendering:optimizeQuality; fill-rule:evenodd; clip-rule:evenodd"
viewBox="0 0 4866 4866"
 xmlns:xlink="http://www.w3.org/1999/xlink">
 <defs>
  <style type="text/css">
   <![CDATA[
    .str1 {stroke:#373435;stroke-width:35.0604}
    .str0 {stroke:#373435;stroke-width:13.358}
    .str2 {stroke:#5CC6D0;stroke-width:13.358}
    .str3 {stroke:#448C8E;stroke-width:13.358}
    .fil0 {fill:none}
    .fil1 {fill:#5CC6D0}
    .fil2 {fill:#448C8E}
    .fil3 {fill:white}
   ]]>
  </style>
 </defs>
 <g id="Capa_x0020_1">
  <metadata id="CorelCorpID_0Corel-Layer"/>
  <g id="_2133891186144">
   <circle class="fil0 str0" cx="2433" cy="2433" r="2426"/>
   <path class="fil0 str1" d="M122 3176c1296,-925 3272,-960 4603,54"/>
   <path class="fil1 str2" d="M122 3176c1296,-925 3272,-960 4603,54 87,-249 134,-518 134,-797 0,-1340 -1086,-2426 -2426,-2426 -1340,0 -2426,1086 -2426,2426 0,259 40,509 115,743z"/>
   <path class="fil2 str3" d="M4725 3230c-1331,-1014 -3307,-979 -4603,-54 314,976 1230,1683 2311,1683 1061,0 1963,-680 2292,-1629z"/>
  </g>
  <path class="fil3" d="M1422 2838l113 -25c44,58 38,50 52,130l-132 32 -33 -137zm1810 -477c108,79 182,47 171,224 -6,101 -43,67 -2,160 38,86 60,9 70,147 15,218 -106,71 0,292 54,112 34,185 -92,236l-1360 281 -265 -808c154,-171 175,-97 313,-429 89,-214 137,-317 325,-426 65,67 63,142 106,216 228,-21 383,-279 744,-205 44,179 -13,171 -10,312zm-79 -707c-95,308 -149,245 -431,355l64 -433c52,235 286,194 367,78zm0 0l-21 -106c-147,-72 -202,-65 -340,21l15 -473 134 -114c12,-15 14,20 25,-31 1,-9 8,-10 12,-15 178,35 271,106 381,177 -78,300 62,162 -44,319 -39,58 -112,173 -162,222zm-374 -807c-5,4 -11,10 -13,12 -3,2 -13,10 -16,12 -3,2 -29,19 -37,23 -5,223 12,434 -4,661 -11,149 -27,422 -136,533l-170 -377c223,104 265,-51 241,-252 -154,-14 -195,11 -258,108l-41 70c-43,-122 -105,-174 -167,-275 -41,-67 -21,-208 -37,-318 143,-59 151,-132 382,-168 32,39 67,83 101,121 31,-41 30,-101 34,-146l64 -11 -19 -48c-457,-9 -559,159 -782,376 162,187 326,389 443,687 -67,57 -168,93 -224,149 -33,32 -119,163 -152,226 -109,210 -108,305 -255,479 -59,-16 -11,2 -53,-38 -1,-1 -23,-32 -36,-41l-427 128 446 1317 407 -128c33,-74 -9,-23 22,-95 269,-88 566,-126 854,-182 957,-185 666,-323 644,-578 -6,-69 31,-142 25,-225 -10,-120 -53,-112 -71,-185 -16,-66 14,-110 -3,-202 -20,-110 -59,-119 -108,-170 -126,-133 95,-396 -284,-419 95,-285 275,-477 428,-647 -252,-362 -484,-374 -798,-397z"/>
 </g>
</svg>
