<?xml version="1.0" encoding="UTF-8"?>
<!DOCTYPE svg PUBLIC "-//W3C//DTD SVG 1.1//EN" "http://www.w3.org/Graphics/SVG/1.1/DTD/svg11.dtd">
<!-- Creator: CorelDRAW X8 -->
<svg xmlns="http://www.w3.org/2000/svg" xml:space="preserve" width="413.999mm" height="268.615mm" version="1.1" style="shape-rendering:geometricPrecision; text-rendering:geometricPrecision; image-rendering:optimizeQuality; fill-rule:evenodd; clip-rule:evenodd"
viewBox="0 0 4137 2684"
 xmlns:xlink="http://www.w3.org/1999/xlink">
 <defs>
  <style type="text/css">
   <![CDATA[
    .str1 {stroke:#FEFEFE;stroke-width:39.9675}
    .str6 {stroke:#FEFEFE;stroke-width:1.99837}
    .str2 {stroke:#373435;stroke-width:1.99837}
    .str3 {stroke:#FEFEFE;stroke-width:0.76138}
    .str5 {stroke:#373435;stroke-width:0.76138}
    .str4 {stroke:#00AFEF;stroke-width:0.76138}
    .str0 {stroke:#0098DA;stroke-width:0.76138}
    .fil3 {fill:none}
    .fil2 {fill:#FEFEFE}
    .fil6 {fill:#373435}
    .fil4 {fill:#F9FBFC}
    .fil5 {fill:#00AFEF}
    .fil1 {fill:black}
    .fil0 {fill:#00AFEF;fill-rule:nonzero}
   ]]>
  </style>
 </defs>
 <g id="Capa_x0020_1">
  <metadata id="CorelCorpID_0Corel-Layer"/>
  <path class="fil0 str0" d="M103 1979l153 104 -21 30 -51 -35 -62 89 -50 -34 62 -90 -51 -35 20 -29zm167 109l141 80 -15 27 -88 -50 -11 20 81 46 -14 26 -82 -47 -14 25 91 52 -16 28 -144 -82 71 -125zm246 222l44 33c-8,9 -17,15 -27,18 -10,4 -21,5 -33,3 -12,-1 -26,-6 -42,-13 -20,-9 -34,-19 -45,-28 -10,-10 -17,-23 -21,-37 -4,-15 -3,-30 5,-46 10,-22 26,-35 47,-39 21,-5 46,0 74,13 23,11 39,22 49,35 9,13 14,27 14,44l-52 -15c0,-4 -1,-8 -2,-11 -1,-4 -4,-9 -8,-12 -3,-4 -8,-7 -13,-10 -13,-6 -24,-6 -34,-2 -8,3 -14,10 -20,22 -7,15 -8,26 -5,34 4,8 11,15 22,20 10,5 19,6 27,5 7,-2 14,-7 20,-14zm103 -48l53 20 40 100 29 -74 53 20 -51 135 -53 -20 -41 -100 -28 74 -53 -20 51 -135zm176 142c6,-22 20,-37 41,-45 21,-7 47,-7 77,2 32,10 54,23 67,41 14,17 17,37 10,59 -5,16 -12,29 -23,37 -10,8 -23,13 -39,14 -16,2 -34,0 -55,-6 -21,-7 -38,-14 -50,-24 -13,-9 -22,-20 -27,-33 -6,-14 -6,-28 -1,-45zm58 18c-4,14 -4,25 1,33 6,8 15,14 27,18 12,4 23,3 31,-1 9,-4 16,-13 20,-29 4,-13 3,-23 -2,-32 -5,-8 -14,-14 -26,-17 -12,-4 -23,-3 -31,1 -9,4 -16,13 -20,27zm179 -23l59 13 -23 107 93 20 -8 35 -152 -34 31 -141zm149 107c4,-23 16,-39 36,-49 20,-10 46,-12 77,-6 32,6 56,17 71,33 15,16 20,36 16,58 -3,17 -9,30 -19,39 -9,9 -22,16 -37,19 -16,3 -34,3 -56,-1 -22,-4 -39,-10 -52,-18 -14,-8 -24,-18 -31,-31 -6,-12 -8,-27 -5,-44zm59 11c-2,15 -1,26 5,33 7,8 16,13 28,15 13,3 24,2 32,-3 8,-5 14,-15 17,-31 2,-14 0,-24 -6,-32 -6,-7 -16,-12 -28,-15 -12,-2 -22,-1 -31,4 -8,5 -14,15 -17,29zm264 60l4 -30 93 11 -7 61c-19,7 -35,12 -49,13 -14,2 -31,2 -50,-1 -23,-2 -41,-8 -55,-15 -14,-8 -25,-18 -31,-30 -7,-12 -9,-26 -8,-41 2,-16 8,-29 18,-39 10,-11 24,-18 42,-22 14,-3 32,-4 54,-1 22,3 38,6 48,10 10,4 19,10 25,17 6,6 11,15 13,24l-59 1c-1,-5 -5,-10 -10,-14 -6,-3 -13,-6 -22,-7 -13,-1 -24,1 -33,7 -8,6 -13,16 -15,31 -2,15 1,27 8,34 7,8 18,12 32,14 7,1 13,1 19,0 7,0 14,-2 22,-5l2 -13 -41 -5zm138 -79l61 5 -12 144 -61 -5 12 -144zm32 -36l47 4 -45 26 -26 -2 24 -28zm181 168l-68 -1 -11 23 -62 -1 77 -143 66 1 71 146 -63 -1 -10 -24zm-12 -32l-21 -52 -22 51 43 1zm316 27l-69 4 -9 24 -62 3 67 -148 66 -3 81 140 -63 4 -11 -24zm-15 -30l-24 -51 -19 53 43 -2zm169 -101l183 -22 4 36 -61 7 13 108 -61 7 -12 -108 -62 7 -4 -35zm326 -47l60 -11 16 84c1,9 1,17 -1,25 -2,8 -7,16 -13,23 -7,7 -14,12 -22,16 -11,5 -24,10 -41,13 -9,1 -19,3 -31,4 -11,1 -21,1 -29,-1 -8,-1 -15,-4 -22,-8 -8,-4 -13,-9 -16,-14 -6,-8 -9,-16 -10,-23l-16 -85 60 -11 16 87c1,8 5,13 12,16 7,4 15,4 25,2 11,-2 18,-5 23,-11 5,-5 7,-12 6,-19l-17 -87zm326 49l-67 17 -3 26 -60 15 35 -159 65 -16 107 121 -62 16 -15 -20zm-20 -27l-34 -45 -8 55 42 -10zm69 -113l57 -19 35 103 90 -30 11 33 -147 50 -46 -137zm313 -24l54 -9c1,11 -1,22 -5,31 -4,10 -11,19 -20,27 -9,8 -22,15 -38,22 -20,8 -37,13 -51,14 -14,1 -28,-2 -41,-9 -14,-6 -24,-18 -31,-35 -9,-22 -9,-42 2,-61 11,-18 31,-33 61,-46 22,-9 42,-14 58,-12 16,1 30,7 42,19l-46 29c-3,-4 -6,-6 -9,-7 -5,-2 -9,-3 -15,-2 -5,0 -10,1 -16,4 -13,5 -21,13 -24,23 -3,8 -2,18 3,30 6,14 13,23 22,26 8,3 18,2 29,-3 11,-4 18,-10 21,-16 4,-7 5,-15 4,-25zm198 -51l-62 30 1 25 -56 27 6 -163 60 -28 128 100 -58 27 -19 -18zm-24 -22l-42 -39 3 57 39 -18zm45 -126l49 -28 104 33 -39 -69 49 -28 72 125 -50 29 -103 -33 39 69 -49 28 -72 -126zm337 -115l50 -23c4,11 5,22 3,32 -2,11 -6,21 -13,31 -7,10 -17,20 -31,30 -17,13 -32,22 -46,27 -13,4 -28,5 -42,2 -15,-4 -28,-12 -39,-27 -14,-19 -18,-39 -12,-59 6,-21 21,-41 47,-60 19,-15 37,-24 53,-27 15,-2 31,0 45,9l-37 39c-4,-3 -8,-4 -10,-4 -5,-1 -10,-1 -15,1 -5,1 -10,4 -15,8 -11,8 -17,18 -18,29 -1,8 3,17 11,27 9,13 19,20 27,21 9,0 18,-3 28,-10 9,-7 15,-14 17,-22 2,-7 1,-15 -3,-24zm5 -108l120 -110 21 23 -75 69 16 17 69 -64 20 22 -69 63 19 21 77 -71 22 24 -122 113 -98 -107zm-3882 199l163 113 -5 7 -163 -112 5 -8zm166 111l173 97 -5 8 -172 -97 4 -8zm175 97l193 90 -4 8 -193 -90 4 -8zm195 90l214 81 -4 8 -213 -81 3 -8zm215 81l219 65 -2 9 -220 -65 3 -9zm220 66l175 38 -2 9 -175 -38 2 -9zm175 39l225 42 -2 9 -225 -42 2 -9zm226 41l227 26 -1 9 -227 -26 1 -9zm228 24l107 9 -1 9 -107 -8 1 -10zm108 12l213 3 0 9 -213 -3 0 -9zm214 4l91 -2 0 9 -91 2 0 -9zm92 0l213 -10 1 9 -214 11 0 -10zm214 -11l91 -7 1 9 -92 7 0 -9zm92 -7l196 -23 1 9 -196 23 -1 -9zm198 -22l225 -42 1 9 -224 42 -2 -9zm225 -43l89 -19 2 9 -89 19 -2 -9zm90 -19l207 -54 2 9 -207 54 -2 -9zm208 -55l169 -57 3 9 -169 57 -3 -9zm171 -55l197 -82 4 8 -197 83 -4 -9zm198 -83l193 -90 4 8 -194 91 -3 -9zm193 -94l199 -113 4 8 -199 113 -4 -8zm201 -114l170 -129 6 7 -171 129 -5 -7zm174 -127l146 -135 6 7 -146 135 -6 -7z"/>
  <path class="fil1" d="M727 817l84 -107c51,-64 118,-62 203,5 41,33 67,71 78,115 48,-14 101,3 161,50 45,36 74,74 86,114 6,19 7,36 4,50 -3,14 -11,29 -23,45 41,-48 85,-89 133,-123 -48,34 -92,75 -133,123 -1,1 -2,2 -3,3l-13 17 0 0c-4,4 -8,9 -11,14l0 0 -10 13c-26,35 -49,72 -71,113 22,-41 45,-78 71,-113l-59 75 -497 -394zm1219 8c-28,-17 -53,-46 -75,-86 -35,-67 -50,-146 -46,-238 5,-93 28,-171 70,-233 28,-42 60,-69 94,-82l-117 -16 -419 0c-151,75 -426,33 -568,210 -28,36 -52,99 -102,134 -8,45 -7,57 -32,88 4,52 -6,74 -19,107 -4,10 -8,22 -12,35 -5,1 -10,1 -15,1 40,359 297,821 588,1154 17,9 24,8 27,7 5,-2 1,-6 19,27 50,-4 13,7 41,-9 64,68 26,-3 90,39 20,13 -3,-1 22,21l58 23 5 61 22 79c28,59 77,118 134,145 -3,80 0,84 -37,118l6 15c-13,45 219,48 226,36l-11 -94 15 -30 28 16c85,14 234,51 317,21l-2 -63c-2,-4 -23,-41 -38,-61 -20,-27 -25,-26 -45,-52 -93,5 -104,-13 -123,-94l33 -13 1 -39c1,-5 -5,2 12,-16 20,-21 4,3 20,-22 3,-33 4,-53 5,-82 1,-28 -3,1 2,-29 4,-25 -3,-9 10,-27l6 -80 2 -55 33 -5c70,9 101,17 162,30 49,11 104,5 145,17l205 -11 11 38 -6 9c31,26 24,31 33,68 30,15 28,12 25,56 36,45 -12,137 -33,170l-26 29c-1,-2 -5,5 -7,7 -8,28 -12,37 -26,54 -23,28 -11,18 -42,26 -34,117 -84,105 -147,165 15,31 -18,28 54,41 20,3 58,-1 79,-4 286,-37 96,-33 191,-105l63 -84 21 -15c18,-51 19,-44 48,-77l19 -28c24,-48 63,-115 81,-162l37 -82c-6,-14 -18,-29 -16,-54 3,-56 8,-33 21,-43l16 -76c1,-3 2,-7 4,-10 1,-3 2,-6 4,-9l33 -57c5,-8 9,-16 14,-27 56,-119 69,-143 150,-129l3 35 30 4c-2,65 -6,30 16,41l18 -16 11 27c11,22 20,41 29,60l21 -8c23,41 4,7 36,36 21,20 24,26 38,46 28,38 44,61 63,107 2,1 6,3 7,4l93 79c8,10 20,25 22,28l28 32c71,13 185,-115 189,-108 -24,-44 -6,-52 -9,-97 -4,-66 -19,-42 -24,-102 -77,-61 -54,-76 -94,-176 -16,-31 -13,-24 -23,-49l18 -22c-7,-11 -7,-9 -15,-32 -1,-4 -4,-18 -5,-23 -4,-20 -7,-37 -11,-57 -9,-47 -24,-83 -31,-115 -29,-26 -15,1 -22,-60 -2,-18 -1,-51 -3,-71l6 -65c-6,-11 -3,5 -12,-30 -1,-4 -3,-20 -4,-25 -4,-23 0,-19 -8,-43l-22 -68c2,8 2,17 3,25 2,51 -10,113 -36,187l-113 -44c20,-67 13,-109 -20,-127 -21,-11 -45,-8 -72,10 -27,17 -50,45 -70,83 -20,36 -29,70 -28,101 1,31 12,52 33,63 21,11 43,10 67,-5 24,-15 47,-41 70,-79l102 59c-55,87 -110,147 -166,180 -33,19 -63,29 -93,29 13,7 26,14 39,21 -13,-7 -26,-14 -39,-21 -23,-1 -44,-6 -65,-17 -21,-11 -38,-26 -50,-45 -71,-37 -141,-72 -210,-104l-25 -12c-2,-1 -4,-2 -6,-3 -78,-36 -153,-69 -227,-99l-83 -32c-98,-37 -192,-67 -283,-91l0 1 -33 -9c-89,-22 -174,-37 -256,-45 -19,9 -40,13 -61,12 -22,-1 -42,-7 -61,-18zm1734 1624l32 9 21 -2 -53 -7zm-2079 -1564c-6,-1 -11,-3 -17,-6l-48 -177c14,8 24,12 32,9 10,-2 16,-9 20,-20 4,-10 4,-23 1,-37 -3,-8 -13,-27 -31,-54 -29,-44 -50,-89 -63,-137 -16,-58 -17,-111 -3,-159 13,-48 36,-77 70,-86 15,-4 31,-4 48,0l47 175c-9,-2 -16,-2 -20,-1 -8,2 -14,9 -17,21 -3,11 -3,24 1,39 3,12 10,27 22,44l15 22c27,39 45,79 56,120 16,59 17,113 3,161 -7,24 -17,42 -29,57 80,-22 166,-32 258,-31 -92,-1 -178,9 -258,31 -13,15 -28,25 -47,30 -12,3 -26,3 -40,-1zm-148 81l-12 8 -347 -531 94 -61 347 530 -33 22c31,-19 64,-35 99,-49 -35,14 -68,30 -99,49l-49 32zm-149 143l-127 -101 11 -15c7,-9 11,-16 10,-23 -1,-7 -7,-14 -16,-21 -16,-13 -30,-12 -42,3l-13 17 -133 -105c13,-16 10,-32 -8,-47 -18,-13 -32,-13 -44,2l-12 16 363 288c3,-5 7,-10 11,-14zm1887 116c-18,-27 -29,-62 -31,-105 -4,-74 16,-152 59,-235 44,-84 98,-145 162,-184 64,-39 121,-45 171,-19 23,12 41,29 55,52l-11 -34c-13,-11 -14,-9 -25,-22 -13,-15 -8,-10 -18,-27 -43,-5 -161,-90 -205,-118l-43 -36c-40,-16 -73,-32 -113,-51 -16,-8 -31,-14 -46,-22 -43,-23 -17,-5 -41,-29 -66,2 -269,-52 -333,-73 -39,-10 -74,-14 -100,-35l-93 -11c25,15 41,39 50,74 11,46 6,108 -14,184l-103 391 -108 -28 103 -392c10,-36 7,-57 -9,-61 -16,-4 -28,12 -38,49l-103 391c91,24 185,54 283,91l-15 -6 163 -421 -80 -31 66 -170 264 103 -66 170 -79 -31 -164 421 -6 -3c74,30 149,63 227,99 -34,-18 -54,-45 -60,-82 -6,-40 5,-88 31,-145l104 -225c26,-55 55,-94 88,-116 33,-21 66,-24 101,-8l88 40 -77 166 -65 -30c-17,-8 -30,-2 -39,17 -5,11 -7,20 -5,26 3,6 9,12 19,17l56 26 -59 127 -66 -30c-9,-4 -16,-5 -22,-2 -6,2 -11,9 -16,20 -6,12 -8,21 -6,27 2,5 9,11 21,16l68 32 -75 164 -55 -25c69,32 139,67 210,104zm-867 -349l-75 -20 104 -398c19,-69 46,-122 82,-157 17,-17 35,-29 54,-35l-13 -2c-34,-3 -61,4 -74,-18l-290 -42c23,17 44,44 63,79 35,67 50,146 46,237 -5,93 -28,170 -70,233 -25,38 -53,64 -83,78 82,8 167,23 256,45zm-294 -511c-23,-1 -43,13 -61,40 -17,28 -27,62 -29,102 -2,40 4,74 19,104 15,29 34,44 57,45 23,1 43,-12 61,-40 17,-27 27,-61 29,-101 2,-41 -4,-75 -19,-104 -15,-29 -34,-44 -57,-46zm-1325 380c-68,1 -106,-8 -139,-51 -60,-9 -53,-15 -95,-43 -68,75 -19,21 -52,85l-19 -49 -9 11c-12,17 -7,14 -17,33l-7 33 -41 -12c-11,31 -5,22 -16,46 -14,29 -4,14 -24,31 0,0 -1,17 -11,26 -31,-90 1,-47 -95,121 -42,72 -25,164 -61,240l0 78c33,36 25,15 31,69l7 85c8,54 5,105 22,153 24,72 24,61 31,142 8,101 22,72 48,123 66,10 31,2 39,20l67 20c61,8 68,6 82,63 26,68 18,124 107,122 27,20 19,-17 39,53 12,4 28,9 47,16 13,-8 0,1 22,-14 1,-1 7,-2 8,-7 2,-4 6,-5 9,-7 2,-31 -4,-30 26,-50 24,-57 6,-23 34,-39 18,-66 74,-241 157,-256 10,-1 51,-1 61,1 55,12 21,-4 33,20 24,3 39,2 59,9 64,23 7,-2 33,27l61 13c37,10 32,-1 48,21l44 -10c38,12 20,12 57,31 1,0 1,0 2,0 -291,-333 -548,-795 -588,-1154z"/>
  <path class="fil2 str1" d="M700 645c-4,391 306,948 0,0z"/>
  <path class="fil3 str2" d="M1212 1249c349,-649 1135,-492 2133,59"/>
  <path class="fil4 str3" d="M3951 1656l-175 -895c-1484,-886 -2607,-1088 -3117,-124l328 898c486,-963 1555,-762 2964,121z"/>
  <path class="fil5 str4" d="M3511 1260c-25,-2 -48,-9 -70,-21 -22,-12 -39,-29 -52,-48 40,22 81,45 122,69zm188 -257l108 66c-65,83 -130,140 -193,169 -36,17 -71,24 -103,22 -41,-24 -82,-47 -122,-69 -18,-28 -27,-64 -27,-107 0,-74 27,-151 80,-231 53,-80 116,-138 188,-172 72,-35 135,-37 188,-7 52,29 78,80 77,153 0,51 -17,112 -51,184l-120 -51c26,-66 21,-109 -14,-128 -23,-13 -49,-12 -79,4 -31,15 -58,41 -82,78 -23,35 -35,68 -36,99 -1,31 10,53 32,65 22,13 46,13 73,0 27,-13 54,-38 81,-75zm-532 69l-27 -14c-2,-1 -4,-2 -6,-3 11,6 22,11 33,17zm250 -314l-72 123 -70 -35c-10,-4 -18,-6 -24,-3 -7,2 -13,9 -20,19 -6,12 -9,20 -7,26 2,6 9,12 22,18l72 37 -93 158 -58 -29c-11,-6 -22,-11 -33,-17 -36,-20 -56,-49 -60,-86 -4,-40 10,-87 43,-142l128 -218c31,-53 65,-90 103,-109 37,-19 74,-20 110,-2l94 47 -94 160 -69 -34c-19,-10 -33,-5 -44,14 -6,10 -9,19 -7,25 2,7 9,13 20,18l59 30zm-524 183l-89 -38c29,12 59,25 89,38zm211 -406l-205 409 -6 -3c-30,-13 -60,-26 -89,-38l-16 -7 205 -409 -86 -36 83 -165 282 120 -83 165 -85 -36z"/>
  <path class="fil6 str5" d="M2501 793l0 0 -36 -11c12,4 24,7 36,11zm-116 -36l139 -389c24,-69 57,-119 99,-152 41,-33 84,-42 128,-29 44,14 71,45 80,92 10,47 1,108 -26,182l-137 384 -116 -36 137 -384c13,-36 11,-56 -7,-62 -16,-5 -31,11 -44,47l-137 383c-12,-4 -24,-7 -36,-11l-80 -25zm-208 -504c-25,-3 -48,9 -69,35 -21,26 -33,60 -38,99 -5,40 0,75 15,105 14,30 34,47 58,50 26,2 49,-9 69,-36 21,-26 34,-59 39,-99 4,-40 0,-75 -15,-105 -14,-30 -34,-47 -59,-49zm13 467c-22,8 -45,10 -68,8 -24,-3 -46,-10 -65,-23 43,3 87,8 133,15zm13 -653c58,6 104,44 137,113 34,70 46,150 35,240 -10,92 -40,168 -90,228 -30,36 -62,60 -95,72 -46,-7 -90,-12 -133,-15 -30,-19 -55,-49 -76,-91 -35,-69 -46,-149 -36,-240 11,-93 41,-168 91,-228 50,-59 105,-86 167,-79zm-429 651c-15,14 -33,23 -54,27 -14,3 -28,1 -44,-3 32,-10 64,-18 98,-24zm-46 -641l40 177c-9,-2 -17,-3 -21,-2 -9,1 -16,8 -20,20 -4,11 -5,24 -1,39 2,12 9,27 21,45l15 23c26,41 44,83 54,124 13,60 11,114 -7,161 -10,23 -21,41 -35,54 -34,6 -66,14 -98,24 -6,-2 -12,-5 -18,-7l-40 -181c14,10 25,14 34,12 10,-2 18,-8 23,-18 5,-11 6,-23 3,-37 -2,-9 -12,-28 -31,-57 -28,-45 -48,-92 -59,-141 -14,-59 -12,-112 6,-159 17,-47 45,-74 83,-81 16,-3 33,-2 51,4zm-163 707l-55 28c18,-10 36,-20 55,-28zm-307 -573l345 553 -38 20c-19,8 -37,18 -55,28l-13 7 -345 -553 106 -55z"/>
  <path class="fil6 str5" d="M1325 958l1 0 -13 12c4,-4 8,-8 12,-12z"/>
  <path class="fil6 str5" d="M1357 926c-1,1 -2,2 -3,3l-16 16 0 -1c6,-6 13,-12 19,-18z"/>
  <path class="fil6 str5" d="M727 614l99 -102c59,-60 133,-54 221,19 43,36 69,76 78,120 53,-10 110,11 172,62 47,39 76,79 87,119 5,20 5,37 1,51 -4,13 -13,27 -28,43 -6,6 -13,12 -19,18l-132 -109 14 -14c8,-8 12,-16 11,-22 0,-7 -6,-14 -16,-23 -17,-13 -32,-13 -45,0l-16 16 -138 -113c15,-16 13,-31 -6,-47 -18,-15 -34,-16 -48,-2l-15 15 378 313c-4,4 -8,8 -12,12l-69 71 -517 -427z"/>
  <ellipse class="fil2 str6" cx="239" cy="1493" rx="38" ry="42"/>
  <path class="fil1 str5" d="M2128 793c-84,-6 -164,-4 -242,6 -64,8 -126,22 -186,42 -44,14 -86,32 -128,52 -18,9 -36,19 -54,29 -32,19 -63,39 -94,62 -31,23 -61,48 -90,74 -20,19 -39,38 -58,58 -4,4 -8,9 -12,13 -25,27 -49,55 -72,86 -43,54 -83,114 -121,180 42,-63 88,-119 136,-168 15,-16 31,-31 46,-45 2,-1 4,-3 6,-5 0,0 0,0 0,0 435,-389 1101,-318 1929,80 35,16 69,33 104,51 152,76 309,163 470,260 -135,-102 -267,-194 -395,-277 -73,-47 -145,-91 -215,-132 -33,-18 -65,-36 -97,-54 -60,-32 -118,-62 -176,-90 -44,-21 -88,-40 -130,-59 -36,-14 -70,-28 -104,-41 -42,-16 -83,-30 -123,-43 -36,-11 -72,-21 -108,-30 -15,-4 -31,-8 -47,-12 -37,-9 -74,-16 -110,-22 -44,-7 -87,-12 -129,-15z"/>
 </g>
</svg>
