<?xml version="1.0" encoding="UTF-8"?>
<!DOCTYPE svg PUBLIC "-//W3C//DTD SVG 1.1//EN" "http://www.w3.org/Graphics/SVG/1.1/DTD/svg11.dtd">
<!-- Creator: CorelDRAW X8 -->
<svg xmlns="http://www.w3.org/2000/svg" xml:space="preserve" width="27.7577mm" height="27.7578mm" version="1.1" style="shape-rendering:geometricPrecision; text-rendering:geometricPrecision; image-rendering:optimizeQuality; fill-rule:evenodd; clip-rule:evenodd"
viewBox="0 0 394 394"
 xmlns:xlink="http://www.w3.org/1999/xlink">
 <defs>
  <style type="text/css">
   <![CDATA[
    .str1 {stroke:#373435;stroke-width:2.83634}
    .str4 {stroke:#FEFEFE;stroke-width:1.08065}
    .str0 {stroke:#373435;stroke-width:1.08065}
    .str2 {stroke:#5CC6D0;stroke-width:1.08065}
    .str3 {stroke:#448C8E;stroke-width:1.08065}
    .fil0 {fill:none}
    .fil3 {fill:#FEFEFE}
    .fil1 {fill:#5CC6D0}
    .fil2 {fill:#448C8E}
   ]]>
  </style>
 </defs>
 <g id="Capa_x0020_1">
  <metadata id="CorelCorpID_0Corel-Layer"/>
  <g id="_2134537970544">
   <circle class="fil0 str0" cx="197" cy="197" r="196"/>
   <path class="fil0 str1" d="M10 257c105,-75 265,-78 372,4"/>
   <path class="fil1 str2" d="M10 257c105,-75 265,-78 372,4 7,-20 11,-42 11,-64 0,-109 -88,-196 -196,-196 -109,0 -196,87 -196,196 0,21 3,41 9,60z"/>
   <path class="fil2 str3" d="M382 261c-107,-82 -267,-79 -372,-4 25,79 99,136 187,136 86,0 159,-55 185,-132z"/>
  </g>
  <path class="fil3 str4" d="M133 302c-6,-1 -21,-18 -26,-24 -15,-14 -23,-18 -11,-26l44 44c-2,3 -4,5 -7,6zm64 -100c1,0 6,3 1,3 -12,2 -15,-6 -10,-15 8,-2 11,-2 14,5 -5,-1 -7,-3 -11,0 -2,5 1,6 6,7zm13 2c1,0 0,0 3,-1l11 1c0,14 0,8 -2,10l-74 75 -45 -45c9,-6 17,-16 25,-24 9,-9 16,-16 25,-25 7,-7 16,-18 24,-24 6,-5 36,-2 46,-2l0 27 -11 -1c-11,-28 -35,-14 -36,0 -1,17 20,31 34,9zm-130 52l0 8c4,4 5,6 10,11 3,3 6,5 9,9 19,19 30,36 44,23l58 -57c7,-7 13,-13 19,-20 4,-3 7,-6 10,-9 10,-10 -7,-16 11,-19 22,-3 46,-18 58,-34 7,-10 11,-18 13,-30 2,-6 4,-14 -5,-13 -4,8 -3,18 -8,28 -12,22 -39,40 -66,43 0,-7 0,-13 0,-20 0,-20 2,-16 -32,-16 1,-17 35,-23 45,-31 25,-21 13,-53 2,-46 -6,6 12,8 3,27 -12,26 -51,17 -60,49 -20,1 -13,-3 -34,18 -17,17 -64,62 -77,79z"/>
 </g>
</svg>
