<?xml version="1.0" encoding="UTF-8"?>
<!DOCTYPE svg PUBLIC "-//W3C//DTD SVG 1.1//EN" "http://www.w3.org/Graphics/SVG/1.1/DTD/svg11.dtd">
<!-- Creator: CorelDRAW X8 -->
<svg xmlns="http://www.w3.org/2000/svg" xml:space="preserve" width="27.7577mm" height="27.7578mm" version="1.1" style="shape-rendering:geometricPrecision; text-rendering:geometricPrecision; image-rendering:optimizeQuality; fill-rule:evenodd; clip-rule:evenodd"
viewBox="0 0 488 488"
 xmlns:xlink="http://www.w3.org/1999/xlink">
 <defs>
  <style type="text/css">
   <![CDATA[
    .str1 {stroke:#373435;stroke-width:3.51933}
    .str4 {stroke:#FEFEFE;stroke-width:1.34086}
    .str0 {stroke:#373435;stroke-width:1.34086}
    .str2 {stroke:#5CC6D0;stroke-width:1.34086}
    .str3 {stroke:#448C8E;stroke-width:1.34086}
    .fil0 {fill:none}
    .fil3 {fill:#FEFEFE}
    .fil1 {fill:#5CC6D0}
    .fil2 {fill:#448C8E}
   ]]>
  </style>
 </defs>
 <g id="Capa_x0020_1">
  <metadata id="CorelCorpID_0Corel-Layer"/>
  <g id="_2134543494832">
   <circle class="fil0 str0" cx="244" cy="244" r="244"/>
   <path class="fil0 str1" d="M12 319c130,-93 329,-97 462,5"/>
   <path class="fil1 str2" d="M12 319c130,-93 329,-97 462,5 9,-25 14,-52 14,-80 0,-134 -109,-243 -244,-243 -134,0 -243,109 -243,243 0,26 4,51 11,75z"/>
   <path class="fil2 str3" d="M474 324c-133,-102 -332,-98 -462,-5 32,98 124,169 232,169 107,0 197,-69 230,-164z"/>
  </g>
  <g id="_2134543494128">
   <path class="fil3 str4" d="M298 127c6,4 19,17 24,24 8,10 18,17 24,26l-48 0 0 -50zm-190 5l0 222c0,21 21,40 41,40l181 0c6,0 7,-5 9,-9 -5,-10 -7,-11 -21,-11l-161 0c-23,0 -31,-7 -31,-34l0 -143c0,-9 2,-9 2,-18 1,-34 -7,-64 14,-64l136 0 0 73c0,4 5,9 9,9l86 0c7,0 7,-7 7,-11 0,-5 -46,-48 -54,-57 -5,-5 -6,-7 -11,-12 -4,-5 -19,-22 -24,-22l-149 0c-20,0 -34,16 -34,37z"/>
   <path class="fil3 str4" d="M341 320l0 -28c8,1 16,4 16,14 0,11 -8,12 -16,14zm-11 -77l0 25c-21,-1 -20,-23 0,-25zm0 -16l0 0zm0 0c-34,1 -60,49 0,63l0 30c-18,-1 -14,-10 -21,-21 -9,0 -8,0 -15,2 -6,25 18,35 36,35 0,11 -2,10 5,15 7,-5 6,-4 6,-15 40,-1 45,-41 25,-55 -5,-4 -17,-9 -25,-9l0 -29c21,5 9,16 30,16 3,-4 6,-8 4,-14 -2,-4 -7,-9 -12,-11 -6,-3 -9,-4 -16,-6 -8,-2 -3,0 -7,-4 -4,-4 3,-3 -6,-6 -4,6 -3,2 -4,9z"/>
   <path class="fil3 str4" d="M148 295c1,8 4,9 14,9l88 0c15,0 12,-14 3,-14l-95 0c-6,0 -8,2 -10,5z"/>
   <path class="fil3 str4" d="M148 327c1,7 2,9 10,9l92 0c14,0 14,-14 0,-14l-92 0c-6,0 -7,2 -10,5z"/>
   <path class="fil3 str4" d="M148 265c1,3 2,5 7,5l100 0c9,0 6,-12 -2,-12l-98 0c-6,0 -6,3 -7,7z"/>
  </g>
 </g>
</svg>
