<?xml version="1.0" encoding="UTF-8"?>
<!DOCTYPE svg PUBLIC "-//W3C//DTD SVG 1.1//EN" "http://www.w3.org/Graphics/SVG/1.1/DTD/svg11.dtd">
<!-- Creator: CorelDRAW X8 -->
<svg xmlns="http://www.w3.org/2000/svg" xml:space="preserve" width="27.7577mm" height="27.7577mm" version="1.1" style="shape-rendering:geometricPrecision; text-rendering:geometricPrecision; image-rendering:optimizeQuality; fill-rule:evenodd; clip-rule:evenodd"
viewBox="0 0 3879 3879"
 xmlns:xlink="http://www.w3.org/1999/xlink">
 <defs>
  <style type="text/css">
   <![CDATA[
    .str1 {stroke:#373435;stroke-width:27.9458}
    .str4 {stroke:#FEFEFE;stroke-width:10.6473}
    .str0 {stroke:#373435;stroke-width:10.6473}
    .str2 {stroke:#5CC6D0;stroke-width:10.6473}
    .str3 {stroke:#448C8E;stroke-width:10.6473}
    .fil0 {fill:none}
    .fil3 {fill:#FEFEFE}
    .fil1 {fill:#5CC6D0}
    .fil2 {fill:#448C8E}
   ]]>
  </style>
 </defs>
 <g id="Capa_x0020_1">
  <metadata id="CorelCorpID_0Corel-Layer"/>
  <g id="_2203363548704">
   <circle class="fil0 str0" cx="1939" cy="1939" r="1934"/>
   <path class="fil0 str1" d="M98 2531c1033,-737 2608,-765 3668,44"/>
   <path class="fil1 str2" d="M98 2531c1033,-737 2608,-765 3668,44 70,-199 107,-413 107,-636 0,-1068 -866,-1934 -1934,-1934 -1068,0 -1934,866 -1934,1934 0,207 33,406 93,592z"/>
   <path class="fil2 str3" d="M3766 2575c-1060,-809 -2635,-781 -3668,-44 250,779 980,1342 1841,1342 846,0 1565,-542 1827,-1298z"/>
  </g>
  <path class="fil3 str4" d="M2129 1907c21,11 28,22 45,41 14,14 30,26 45,40 8,7 15,12 22,20 81,85 60,36 133,161 62,106 108,249 128,376 12,72 23,247 13,317 -57,6 -762,1 -870,1 -187,0 -147,39 -228,-303 -22,-95 -45,-188 -68,-282l-51 -217c-4,-33 11,-45 23,-66 29,-48 237,-446 248,-448 21,8 11,0 15,15 3,15 -6,447 3,478l152 0c6,-29 2,-648 2,-693 0,-63 5,-105 42,-133 34,-27 87,-35 130,-10 36,21 59,56 59,115l0 696c0,94 203,346 202,677l158 2c-10,-297 -73,-393 -179,-622 -41,-90 -21,-34 -24,-165zm115 -471c47,-80 76,-101 101,-219 54,12 113,15 151,45 34,25 59,85 31,141 -19,38 -59,72 -124,63 -28,-3 -143,-21 -159,-30zm-660 -89c-36,-33 -73,-105 -86,-171 -41,-205 101,-408 324,-424 302,-22 477,327 321,551l-14 17c5,-257 -293,-393 -480,-193 -48,52 -67,127 -65,220zm211 -746c-79,-13 -213,63 -257,97 -70,55 -111,105 -156,195 -41,84 -58,196 -42,300 15,102 54,165 107,243 -43,93 -108,194 -155,287 -24,48 -53,98 -78,142 -27,47 -73,107 -68,152 7,27 -3,11 -4,31 -3,29 5,-3 4,29 -4,18 153,684 181,783 14,49 33,74 63,101 23,23 68,56 112,52 23,-6 15,-1 33,4 16,4 89,2 110,2 135,0 986,-6 1028,3 0,-353 13,-524 -113,-829 -21,-53 -52,-108 -80,-153 -20,-31 -26,-47 -50,-67 -22,-19 -41,-36 -62,-56l-239 -229 1 -111c96,17 274,63 366,38 102,-28 201,-137 193,-224 -7,-26 4,-19 5,-36 2,-25 -7,1 -4,-33 8,-34 -21,-92 -36,-115 -42,-65 -97,-106 -177,-123 -213,-45 -78,-7 -174,-204 -24,-49 -65,-105 -94,-135 -60,-62 -219,-156 -310,-144 -31,9 -30,-6 -54,-5 -24,0 -17,14 -50,5z"/>
 </g>
</svg>
