<?xml version="1.0" encoding="UTF-8"?>
<!DOCTYPE svg PUBLIC "-//W3C//DTD SVG 1.1//EN" "http://www.w3.org/Graphics/SVG/1.1/DTD/svg11.dtd">
<!-- Creator: CorelDRAW X8 -->
<svg xmlns="http://www.w3.org/2000/svg" xml:space="preserve" width="27.7577mm" height="27.7578mm" version="1.1" style="shape-rendering:geometricPrecision; text-rendering:geometricPrecision; image-rendering:optimizeQuality; fill-rule:evenodd; clip-rule:evenodd"
viewBox="0 0 958 958"
 xmlns:xlink="http://www.w3.org/1999/xlink">
 <defs>
  <style type="text/css">
   <![CDATA[
    .str1 {stroke:#373435;stroke-width:6.90318}
    .str4 {stroke:#FEFEFE;stroke-width:2.63011}
    .str0 {stroke:#373435;stroke-width:2.63011}
    .str2 {stroke:#5CC6D0;stroke-width:2.63011}
    .str3 {stroke:#448C8E;stroke-width:2.63011}
    .fil0 {fill:none}
    .fil3 {fill:#FEFEFE}
    .fil1 {fill:#5CC6D0}
    .fil2 {fill:#448C8E}
   ]]>
  </style>
 </defs>
 <g id="Capa_x0020_1">
  <metadata id="CorelCorpID_0Corel-Layer"/>
  <g id="_2133891194656">
   <circle class="fil0 str0" cx="479" cy="479" r="478"/>
   <path class="fil0 str1" d="M24 625c255,-182 644,-189 906,11"/>
   <path class="fil1 str2" d="M24 625c255,-182 644,-189 906,11 17,-49 27,-102 27,-157 0,-264 -214,-478 -478,-478 -264,0 -478,214 -478,478 0,51 8,100 23,146z"/>
   <path class="fil2 str3" d="M930 636c-262,-200 -651,-193 -906,-11 62,193 242,332 455,332 209,0 386,-134 451,-321z"/>
  </g>
  <path class="fil3 str4" d="M739 739c2,-48 2,-64 -30,-83 -53,-33 -143,-53 -156,-66 -9,-9 -8,-32 -7,-48 1,-20 9,-23 17,-38 7,-13 10,-28 14,-45 8,-41 24,-30 18,-87 -5,-38 23,-71 -34,-126 -56,-54 -206,-28 -200,80 1,19 5,33 2,52 -7,39 12,50 20,87 13,62 28,44 30,80 2,59 -5,45 -90,77 -76,29 -116,41 -101,117l517 0z"/>
 </g>
</svg>
