<?xml version="1.0" encoding="UTF-8"?>
<!DOCTYPE svg PUBLIC "-//W3C//DTD SVG 1.1//EN" "http://www.w3.org/Graphics/SVG/1.1/DTD/svg11.dtd">
<!-- Creator: CorelDRAW X8 -->
<svg xmlns="http://www.w3.org/2000/svg" xml:space="preserve" width="413.903mm" height="268.644mm" version="1.1" style="shape-rendering:geometricPrecision; text-rendering:geometricPrecision; image-rendering:optimizeQuality; fill-rule:evenodd; clip-rule:evenodd"
viewBox="0 0 41390 26864"
 xmlns:xlink="http://www.w3.org/1999/xlink">
 <defs>
  <style type="text/css">
   <![CDATA[
    .str1 {stroke:#FEFEFE;stroke-width:399.961}
    .str2 {stroke:#373435;stroke-width:20.0001}
    .str6 {stroke:#FEFEFE;stroke-width:20.0001}
    .str0 {stroke:#0098DA;stroke-width:7.62002}
    .str4 {stroke:#00AFEF;stroke-width:7.62002}
    .str5 {stroke:#373435;stroke-width:7.62002}
    .str3 {stroke:#FEFEFE;stroke-width:7.62002}
    .fil3 {fill:none}
    .fil1 {fill:black}
    .fil5 {fill:#00AFEF}
    .fil6 {fill:#373435}
    .fil4 {fill:#F9FBFC}
    .fil2 {fill:#FEFEFE}
    .fil0 {fill:#00AFEF;fill-rule:nonzero}
   ]]>
  </style>
 </defs>
 <g id="Capa_x0020_1">
  <metadata id="CorelCorpID_0Corel-Layer"/>
  <path class="fil0 str0" d="M1026 19805l1531 1041 -210 300 -511 -350 -620 891 -500 -341 620 -900 -510 -350 200 -291zm1671 1091l1411 801 -150 270 -881 -500 -110 200 811 460 -140 260 -821 -470 -140 250 911 520 -160 281 -1441 -821 710 -1251 0 0zm2462 2222l440 330c-80,90 -170,150 -270,180 -100,40 -210,50 -330,30 -120,-10 -260,-60 -421,-130 -200,-90 -340,-190 -450,-280 -100,-100 -170,-230 -210,-370 -40,-151 -30,-301 50,-461 100,-220 260,-350 470,-390 211,-50 461,0 741,130 230,110 390,220 490,350 90,130 140,270 140,441l-520 -151c0,-40 -10,-80 -20,-110 -10,-40 -40,-90 -80,-120 -30,-40 -80,-70 -130,-100 -130,-60 -240,-60 -340,-20 -80,30 -141,100 -201,220 -70,151 -80,261 -50,341 40,80 110,150 221,200 100,50 190,60 270,50 70,-20 140,-70 200,-140l0 0zm1031 -481l530 201 400 1000 291 -740 530 200 -510 1351 -531 -200 -410 -1001 -280 740 -531 -200 511 -1351zm1761 1421c60,-220 200,-370 410,-450 210,-70 471,-70 771,20 320,100 540,230 670,410 140,170 170,371 100,591 -50,160 -120,290 -230,370 -100,80 -230,130 -390,140 -160,20 -340,0 -551,-60 -210,-70 -380,-140 -500,-240 -130,-90 -220,-200 -270,-330 -60,-140 -60,-280 -10,-451l0 0zm580 181c-40,140 -40,250 10,330 60,80 150,140 271,180 120,40 230,30 310,-10 90,-40 160,-130 200,-290 40,-130 30,-230 -20,-321 -50,-80 -140,-140 -260,-170 -120,-40 -230,-30 -310,10 -91,40 -161,130 -201,271l0 0zm1792 -231l590 130 -230 1071 931 200 -80 351 -1522 -341 311 -1411 0 0zm1491 1071c40,-230 160,-390 360,-490 200,-100 460,-120 771,-60 320,60 560,170 710,330 150,160 200,360 160,580 -30,171 -90,301 -190,391 -90,90 -220,160 -370,190 -160,30 -340,30 -561,-10 -220,-40 -390,-100 -520,-180 -140,-80 -240,-180 -310,-311 -60,-120 -80,-270 -50,-440l0 0zm590 110c-20,150 -10,260 50,330 70,81 160,131 280,151 130,30 241,20 321,-30 80,-51 140,-151 170,-311 20,-140 0,-240 -60,-320 -60,-70 -160,-120 -280,-150 -121,-20 -221,-10 -311,40 -80,50 -140,150 -170,290l0 0zm2642 601l40 -301 931 111 -70 610c-190,70 -351,120 -491,130 -140,20 -310,20 -500,-10 -230,-20 -410,-80 -550,-150 -140,-80 -251,-180 -311,-300 -70,-120 -90,-260 -80,-411 20,-160 80,-290 180,-390 101,-110 241,-180 421,-220 140,-30 320,-40 540,-10 220,30 380,60 481,100 100,40 190,100 250,170 60,60 110,150 130,240l-591 10c-10,-50 -50,-100 -100,-140 -60,-30 -130,-60 -220,-70 -130,-10 -240,10 -330,70 -80,60 -130,160 -150,310 -20,151 10,271 80,341 70,80 180,120 320,140 70,10 130,10 190,0 70,0 140,-20 220,-50l20 -130 -410 -50 0 0zm1381 -791l611 50 -121 1441 -610 -50 120 -1441zm320 -360l471 40 -451 260 -260 -20 240 -280 0 0zm1812 1681l-681 -10 -110 230 -620 -10 770 -1431 661 10 710 1461 -630 -10 -100 -240 0 0zm-120 -320l-211 -521 -220 511 431 10zm3162 270l-691 40 -90 240 -620 30 670 -1481 661 -30 810 1401 -630 40 -110 -240 0 0zm-150 -300l-240 -511 -191 531 431 -20zm1691 -1011l1831 -220 40 360 -610 70 130 1081 -610 70 -121 -1081 -620 70 -40 -350 0 0zm3262 -470l601 -110 160 840c10,90 10,170 -10,250 -20,80 -70,161 -130,231 -70,70 -140,120 -220,160 -110,50 -241,100 -411,130 -90,10 -190,30 -310,40 -110,10 -210,10 -290,-10 -80,-10 -150,-40 -220,-80 -80,-40 -130,-90 -160,-140 -60,-80 -90,-160 -100,-231l-161 -850 601 -110 160 870c10,80 50,131 120,161 70,40 150,40 250,20 110,-20 180,-50 230,-111 50,-50 70,-120 60,-190l-170 -870zm3263 490l-671 170 -30 260 -600 150 350 -1591 650 -160 1071 1211 -620 160 -150 -200zm-200 -270l-341 -450 -80 550 421 -100 0 0zm690 -1131l570 -190 351 1031 900 -301 110 331 -1471 500 -460 -1371 0 0zm3132 -240l541 -90c10,110 -10,220 -50,310 -40,100 -110,190 -200,270 -91,80 -221,150 -381,220 -200,80 -370,130 -510,140 -140,10 -280,-20 -410,-90 -141,-60 -241,-180 -311,-350 -90,-220 -90,-420 20,-610 110,-180 311,-331 611,-461 220,-90 420,-140 580,-120 160,10 300,70 421,190l-461 291c-30,-40 -60,-60 -90,-70 -50,-20 -90,-30 -150,-20 -50,0 -100,10 -160,40 -130,50 -210,130 -240,230 -30,80 -20,180 30,300 60,140 130,230 220,260 80,30 180,20 290,-30 110,-40 180,-100 210,-160 40,-70 50,-150 40,-250l0 0zm1982 -510l-621 300 10 250 -560 270 60 -1631 600 -280 1281 1000 -580 271 -190 -180 0 0zm-240 -221l-421 -390 30 570 391 -180zm450 -1261l490 -280 1041 330 -390 -690 490 -280 721 1251 -501 290 -1031 -330 391 690 -491 280 -720 -1261zm3372 -1150l501 -231c40,111 50,221 30,321 -20,110 -60,210 -130,310 -70,100 -171,200 -311,300 -170,130 -320,220 -460,270 -130,40 -280,50 -420,20 -150,-40 -280,-120 -391,-270 -140,-190 -180,-390 -120,-590 60,-210 211,-411 471,-601 190,-150 370,-240 530,-270 150,-20 310,0 450,90l-370 390c-40,-30 -80,-40 -100,-40 -50,-10 -100,-10 -150,10 -50,10 -100,40 -150,80 -110,80 -170,181 -180,291 -10,80 30,170 110,270 90,130 190,200 270,210 90,0 180,-30 280,-100 90,-70 150,-140 170,-220 20,-70 10,-150 -30,-240l0 0zm50 -1081l1201 -1101 210 230 -750 691 160 170 690 -641 201 220 -691 631 190 210 771 -710 220 240 -1221 1131 -981 -1071 0 0zm-38848 1991l1631 1131 -50 70 -1631 -1121 50 -80zm1661 1111l1732 971 -50 80 -1722 -971 40 -80zm1752 971l1931 900 -40 80 -1931 -900 40 -80zm1951 900l2142 811 -40 80 -2132 -811 30 -80zm2152 811l2191 650 -20 91 -2201 -651 30 -90zm2201 660l1752 381 -20 90 -1752 -380 20 -91zm1752 391l2251 420 -20 90 -2251 -420 20 -90zm2261 410l2272 260 -10 90 -2272 -260 10 -90zm2282 240l1071 90 -10 90 -1071 -80 10 -100 0 0zm1081 120l2131 30 0 90 -2131 -30 0 -90zm2141 40l911 -20 0 90 -911 20 0 -90zm921 0l2131 -100 10 90 -2141 110 0 -100 0 0zm2141 -110l911 -70 10 90 -921 70 0 -90 0 0zm921 -70l1961 -230 10 90 -1961 230 -10 -90zm1981 -220l2252 -420 10 90 -2242 420 -20 -90 0 0zm2252 -430l891 -190 20 90 -891 190 -20 -90zm901 -190l2071 -541 20 90 -2071 541 -20 -90zm2081 -551l1691 -570 31 90 -1692 570 -30 -90zm1712 -550l1971 -821 40 80 -1971 831 -40 -90zm1981 -831l1931 -900 40 80 -1941 910 -30 -90zm1931 -940l1992 -1131 40 80 -1992 1131 -40 -80zm2012 -1141l1701 -1291 60 70 -1711 1291 -50 -70 0 0zm1741 -1271l1461 -1351 60 70 -1461 1351 -60 -70z"/>
  <path class="fil1" d="M7270 8177l841 -1071c510,-640 1181,-620 2032,50 410,330 670,711 780,1151 480,-140 1011,30 1611,500 451,361 741,741 861,1141 60,190 70,360 40,501 -30,140 -110,290 -230,450 410,-480 850,-891 1331,-1231 -481,340 -921,751 -1331,1231 -10,10 -20,20 -30,30l-130 170 0 0c-40,40 -80,90 -110,140l0 0 -101 130c-260,350 -490,721 -710,1131 220,-410 450,-781 710,-1131l-590 751 -4974 -3943 0 0zm12199 80c-280,-170 -530,-460 -750,-861 -351,-670 -501,-1461 -461,-2381 50,-931 281,-1712 701,-2332 280,-420 600,-691 941,-821l-1171 -160 -4193 0c-1511,751 -4263,330 -5684,2102 -281,360 -521,990 -1021,1341 -80,450 -70,570 -320,880 40,521 -60,741 -191,1071 -40,100 -80,220 -120,350 -50,10 -100,10 -150,10 401,3593 2972,8216 5885,11549 170,90 240,80 270,70 50,-20 10,-60 190,270 500,-40 130,70 410,-90 641,680 260,-30 901,390 200,130 -30,-10 220,210l580 231 50 610 221 791c280,590 770,1180 1341,1451 -30,800 0,840 -371,1180l60 151c-130,450 2192,480 2262,360l-110 -941 150 -300 280 160c851,140 2342,510 3173,210l-21 -630c-20,-40 -230,-411 -380,-611 -200,-270 -250,-260 -450,-520 -931,50 -1041,-130 -1231,-941l330 -130 10 -390c10,-50 -50,20 120,-160 200,-210 40,30 200,-220 31,-331 41,-531 51,-821 10,-280 -30,10 20,-290 40,-250 -30,-90 100,-270l60 -801 20 -550 330 -50c700,90 1011,170 1621,300 490,110 1041,50 1451,170l2052 -110 110 380 -60 90c310,260 240,310 330,681 300,150 280,120 250,560 360,450 -120,1371 -330,1701l-260 290c-10,-20 -50,51 -70,71 -80,280 -120,370 -261,540 -230,280 -110,180 -420,260 -340,1171 -841,1051 -1471,1651 150,311 -180,280 540,411 201,30 581,-10 791,-40 2862,-371 961,-331 1911,-1051l631 -841 210 -150c180,-510 190,-440 480,-770l190 -281c241,-480 631,-1151 811,-1621l370 -820c-60,-141 -180,-291 -160,-541 30,-560 80,-330 210,-430l161 -761c10,-30 20,-70 40,-100 10,-30 20,-60 40,-90l330 -570c50,-80 90,-160 140,-270 560,-1191 690,-1431 1501,-1291l30 350 300 40c-20,650 -60,300 160,410l180 -160 111 270c110,220 200,411 290,601l210 -80c230,410 40,70 360,360 210,200 240,260 380,460 281,381 441,611 631,1071 20,10 60,30 70,40l931 791c80,100 200,250 220,280l280 320c711,130 1851,-1151 1891,-1081 -240,-440 -60,-520 -90,-970 -40,-661 -190,-421 -240,-1021 -770,-611 -540,-761 -941,-1761 -160,-311 -130,-241 -230,-491l180 -220c-70,-110 -70,-90 -150,-320 -10,-40 -40,-180 -50,-230 -40,-201 -70,-371 -110,-571 -90,-470 -240,-830 -310,-1151 -290,-260 -150,10 -220,-600 -20,-180 -10,-510 -30,-711l60 -650c-60,-110 -30,50 -120,-300 -10,-40 -30,-200 -40,-250 -40,-231 0,-191 -80,-431l-221 -680c20,80 20,170 30,250 21,510 -100,1131 -360,1871l-1131 -440c201,-671 131,-1091 -200,-1271 -210,-110 -450,-80 -720,100 -270,170 -501,450 -701,831 -200,360 -290,700 -280,1010 10,311 120,521 330,631 210,110 431,100 671,-50 240,-150 470,-410 700,-791l1021 591c-550,870 -1101,1471 -1661,1801 -330,190 -631,290 -931,290 130,70 260,140 390,210 -130,-70 -260,-140 -390,-210 -230,-10 -440,-60 -650,-170 -210,-110 -381,-260 -501,-450 -710,-370 -1411,-721 -2101,-1041l-250 -120c-20,-10 -40,-20 -60,-30 -781,-360 -1532,-691 -2272,-991l-831 -320c-980,-370 -1921,-670 -2832,-911l0 10 -330 -90c-891,-220 -1741,-370 -2562,-450 -190,90 -400,130 -610,120 -220,-10 -421,-70 -611,-180l0 0zm17353 16252l320 90 210 -20 -530 -70 0 0zm-20805 -15652c-60,-10 -110,-30 -170,-60l-481 -1771c140,80 240,120 321,90 100,-20 160,-90 200,-200 40,-100 40,-230 10,-370 -30,-80 -130,-270 -311,-541 -290,-440 -500,-890 -630,-1371 -160,-580 -170,-1110 -30,-1591 130,-480 360,-770 700,-860 151,-40 311,-40 481,0l470 1751c-90,-20 -160,-20 -200,-10 -80,20 -140,90 -170,210 -30,110 -30,240 10,390 30,120 100,270 220,441l150 220c270,390 451,790 561,1201 160,590 170,1130 30,1611 -70,240 -170,420 -291,570 801,-220 1662,-320 2582,-310 -920,-10 -1781,90 -2582,310 -130,150 -280,250 -470,300 -120,30 -260,30 -400,-10l0 0zm-1481 811l-120 80 -3473 -5314 941 -610 3472 5304 -330 220c310,-190 641,-351 991,-491 -350,140 -681,301 -991,491l-490 320zm-1491 1431l-1271 -1011 110 -150c70,-90 110,-160 100,-230 -10,-70 -70,-140 -160,-210 -160,-130 -300,-120 -421,30l-130 170 -1331 -1051c130,-160 100,-320 -80,-470 -180,-130 -320,-130 -440,20l-120 160 3633 2882c30,-50 70,-100 110,-140l0 0zm18883 1161c-180,-270 -290,-621 -310,-1051 -40,-740 160,-1521 591,-2352 440,-840 980,-1451 1621,-1841 640,-390 1211,-450 1711,-190 230,120 410,290 550,520l-110 -340c-130,-110 -140,-90 -250,-220 -130,-150 -80,-100 -180,-270 -430,-50 -1611,-901 -2052,-1181l-430 -360c-400,-161 -730,-321 -1131,-511 -160,-80 -310,-140 -460,-220 -430,-230 -170,-50 -410,-290 -661,20 -2692,-521 -3333,-731 -390,-100 -740,-140 -1000,-350l-931 -110c250,150 410,390 500,740 110,461 60,1081 -140,1842l-1031 3913 -1080 -281 1030 -3922c100,-361 70,-571 -90,-611 -160,-40 -280,120 -380,491l-1031 3912c911,241 1852,541 2832,911l-150 -60 1631 -4213 -800 -310 660 -1702 2642 1031 -660 1701 -791 -310 -1641 4213 -60 -30c740,300 1491,631 2272,991 -341,-180 -541,-450 -601,-821 -60,-400 50,-880 310,-1451l1041 -2251c260,-551 551,-941 881,-1161 330,-210 660,-240 1010,-80l881 400 -770 1661 -651 -300c-170,-80 -300,-20 -390,170 -50,110 -70,200 -50,260 30,60 90,120 190,171l560 260 -590 1271 -661 -301c-90,-40 -160,-50 -220,-20 -60,20 -110,90 -160,201 -60,120 -80,210 -60,270 20,50 90,110 210,160l681 320 -751 1641 -550 -250c690,320 1391,671 2101,1041l0 0zm-8676 -3493l-751 -200 1041 -3983c190,-690 461,-1221 821,-1571 170,-170 350,-290 540,-350l-130 -20c-340,-30 -610,40 -740,-180l-2903 -421c231,171 441,441 631,791 350,670 500,1461 460,2372 -50,930 -280,1701 -700,2331 -250,381 -531,641 -831,781 821,80 1671,230 2562,450l0 0zm-2942 -5113c-230,-10 -430,130 -611,400 -170,280 -270,620 -290,1021 -20,400 40,740 190,1040 150,291 341,441 571,451 230,10 430,-120 610,-401 170,-270 270,-610 290,-1010 20,-411 -40,-751 -190,-1041 -150,-290 -340,-440 -570,-460l0 0zm-13260 3802c-680,10 -1060,-80 -1391,-510 -600,-90 -530,-150 -950,-430 -681,750 -191,210 -521,850l-190 -490 -90 110c-120,170 -70,140 -170,330l-70 331 -410 -121c-111,311 -51,221 -161,461 -140,290 -40,140 -240,310 0,0 -10,170 -110,260 -310,-900 10,-470 -951,1211 -420,721 -250,1641 -610,2402l0 780c330,361 250,150 310,691l70 850c80,541 50,1051 220,1532 241,720 241,610 311,1421 80,1010 220,720 480,1230 660,101 310,20 390,201l671 200c610,80 680,60 820,630 261,681 181,1241 1071,1221 270,200 190,-170 390,530 121,41 281,91 471,161 130,-80 0,10 220,-140 10,-11 70,-21 80,-71 20,-40 60,-50 90,-70 20,-310 -40,-300 260,-500 240,-570 60,-230 340,-390 181,-661 741,-2412 1572,-2562 100,-10 510,-10 610,10 550,120 210,-40 330,200 240,30 391,20 591,90 640,230 70,-20 330,270l610 130c371,100 321,-10 481,211l440 -101c380,121 200,121 571,311 10,0 10,0 20,0 -2913,-3333 -5484,-7956 -5885,-11549l0 0z"/>
  <path class="fil2 str1" d="M7000 6456c-40,3912 3062,9487 0,0z"/>
  <path class="fil3 str2" d="M12124 12500c3492,-6495 11358,-4924 21345,590"/>
  <path class="fil4 str3" d="M39534 16573l-1751 -8957c-14851,-8866 -26089,-10887 -31193,-1240l3282 8986c4864,-9637 15562,-7625 29662,1211l0 0z"/>
  <path class="fil5 str4" d="M35131 12610c-251,-20 -481,-90 -701,-210 -220,-120 -390,-290 -520,-480 400,220 810,450 1221,690l0 0zm1881 -2572l1081 661c-651,830 -1301,1401 -1932,1691 -360,170 -710,240 -1030,220 -411,-240 -821,-470 -1221,-690 -180,-281 -270,-641 -270,-1071 0,-741 270,-1511 800,-2312 531,-800 1161,-1381 1881,-1721 721,-350 1351,-370 1882,-70 520,290 780,800 770,1531 0,510 -170,1121 -510,1841l-1201 -510c260,-661 210,-1091 -140,-1281 -230,-130 -490,-120 -790,40 -311,150 -581,410 -821,781 -230,350 -350,680 -360,990 -10,311 100,531 320,651 220,130 460,130 730,0 271,-130 541,-380 811,-751l0 0zm-5324 691l-270 -140c-20,-10 -40,-20 -60,-30 110,60 220,110 330,170zm2502 -3143l-721 1231 -700 -350c-100,-40 -180,-60 -240,-30 -70,20 -130,90 -200,190 -60,120 -90,200 -70,260 20,60 90,120 220,181l720 370 -930 1581 -581 -290c-110,-60 -220,-110 -330,-170 -360,-201 -560,-491 -601,-861 -40,-400 101,-871 431,-1421l1281 -2182c310,-530 650,-900 1030,-1090 371,-191 741,-201 1101,-20l941 470 -941 1601 -690 -340c-190,-100 -330,-50 -441,140 -60,100 -90,190 -70,250 20,70 90,130 201,180l590 300 0 0zm-5244 1832l-890 -380c290,120 590,250 890,380zm2112 -4063l-2052 4093 -60 -30c-300,-130 -600,-260 -890,-380l-161 -71 2052 -4093 -861 -360 831 -1651 2822 1201 -831 1651 -850 -360 0 0z"/>
  <path class="fil6 str5" d="M25023 7937l0 0 -360 -110c120,40 240,70 360,110zm-1161 -361l1391 -3892c241,-691 571,-1191 991,-1521 410,-331 841,-421 1281,-291 440,140 711,451 801,921 100,470 10,1081 -260,1821l-1371 3843 -1161 -360 1371 -3843c130,-360 110,-560 -70,-620 -160,-50 -311,110 -441,470l-1371 3833c-120,-40 -240,-70 -360,-110l-801 -251zm-2081 -5043c-250,-30 -480,90 -691,350 -210,260 -330,600 -380,991 -50,400 0,750 150,1051 140,300 341,470 581,500 260,20 490,-90 690,-360 210,-261 340,-591 390,-991 41,-400 0,-751 -150,-1051 -140,-300 -340,-470 -590,-490zm130 4673c-220,80 -450,100 -680,80 -241,-30 -461,-100 -651,-230 430,30 871,80 1331,150zm130 -6535c581,60 1041,441 1371,1131 340,701 460,1501 350,2402 -100,921 -400,1681 -900,2282 -300,360 -621,600 -951,720 -460,-70 -901,-120 -1331,-150 -300,-190 -550,-490 -760,-911 -351,-690 -461,-1491 -361,-2401 110,-931 411,-1682 911,-2282 500,-590 1051,-861 1671,-791zm-4293 6515c-150,140 -330,230 -540,270 -140,30 -281,10 -441,-30 321,-100 641,-180 981,-240l0 0zm-460 -6414l400 1771c-90,-20 -170,-30 -210,-20 -90,10 -160,80 -200,200 -40,110 -50,240 -10,390 20,120 90,270 210,451l150 230c260,410 440,830 540,1241 130,600 110,1140 -70,1611 -100,230 -210,410 -350,540 -340,60 -660,140 -981,240 -60,-20 -120,-50 -180,-70l-400 -1811c140,100 250,140 340,120 100,-20 180,-80 230,-180 50,-110 60,-230 30,-370 -20,-90 -120,-281 -310,-571 -280,-450 -480,-920 -590,-1411 -140,-590 -120,-1121 60,-1591 170,-470 450,-740 830,-811 160,-30 331,-20 511,41l0 0zm-1631 7075l-551 280c180,-100 360,-200 551,-280zm-3073 -5735l3453 5535 -380 200c-191,80 -371,180 -551,280l-130 70 -3452 -5534 1060 -551 0 0z"/>
  <path class="fil6 str5" d="M13255 9588l10 0 -130 120c40,-40 80,-80 120,-120l0 0z"/>
  <path class="fil6 str5" d="M13575 9268c-10,10 -20,20 -30,30l-160 160 0 -10c60,-60 130,-120 190,-180z"/>
  <path class="fil6 str5" d="M7270 6145l991 -1020c591,-601 1331,-541 2212,190 430,360 690,760 780,1201 531,-100 1101,110 1722,620 470,390 760,791 870,1191 50,200 50,370 10,510 -40,130 -130,271 -280,431 -60,60 -130,120 -190,180l-1321 -1091 140 -140c80,-80 120,-160 110,-220 0,-70 -60,-140 -160,-230 -170,-131 -320,-131 -450,0l-160 160 -1381 -1131c150,-160 130,-310 -61,-470 -180,-151 -340,-161 -480,-20l-150 150 3783 3132c-40,40 -80,80 -120,120l-691 711 -5174 -4274 0 0z"/>
  <ellipse class="fil2 str6" cx="2387" cy="14942" rx="380" ry="420"/>
  <path class="fil1 str5" d="M21291 7937c-841,-60 -1642,-40 -2422,60 -641,80 -1261,220 -1862,420 -440,140 -860,320 -1280,520 -181,90 -361,191 -541,291 -320,190 -630,390 -941,620 -310,230 -610,480 -900,741 -200,190 -390,380 -581,580 -40,40 -80,90 -120,130 -250,270 -490,551 -720,861 -431,540 -831,1141 -1211,1801 420,-630 881,-1191 1361,-1681 150,-160 310,-310 460,-450 20,-10 40,-31 60,-51 0,0 0,0 0,0 4353,-3892 11018,-3182 19304,801 351,160 691,330 1041,510 1521,761 3092,1632 4703,2602 -1351,-1020 -2671,-1941 -3952,-2772 -731,-470 -1451,-910 -2152,-1321 -330,-180 -650,-360 -971,-540 -600,-320 -1181,-620 -1761,-901 -440,-210 -881,-400 -1301,-590 -360,-140 -700,-280 -1041,-410 -420,-161 -830,-301 -1231,-431 -360,-110 -720,-210 -1080,-300 -150,-40 -311,-80 -471,-120 -370,-90 -740,-160 -1100,-220 -441,-70 -871,-120 -1291,-150l0 0z"/>
 </g>
</svg>
