<svg height="472pt" viewBox="-76 0 472 472" width="472pt" xmlns="http://www.w3.org/2000/svg"><path d="m283.414062 311.039062-61.414062-15.039062-22-16v-64h-80v64l-22 16-61.414062 15.039062c-21.480469 5.261719-36.585938 24.511719-36.585938 46.625v114.335938h320v-114.335938c0-22.113281-15.105469-41.363281-36.585938-46.625zm0 0" fill="#fec9a3"/><path d="m200 245.207031v-29.207031h-80v29.207031c24.726562 14.390625 55.273438 14.390625 80 0zm0 0" fill="#feb784"/><path d="m80 120h-16l-8-16-2.945312-20.585938c-3.019532-21.148437 7.835937-41.859374 26.945312-51.414062zm0 0" fill="#ffa912"/><path d="m216 24c-9.996094-14.992188-26.828125-24-44.847656-24h-107.152344v32c0 12.589844 5.929688 24.445312 16 32l1.457031 40h182.542969l2.398438-24.28125c1.425781-14.242188-3.238282-28.421875-12.839844-39.039062-9.601563-10.613282-23.246094-16.675782-37.558594-16.679688zm0 0" fill="#ffb531"/><path d="m160 240c-44.183594 0-80-35.816406-80-80v-96h136c5.296875 10.597656 12.269531 20.273438 20.648438 28.648438l3.351562 3.351562v64c0 44.183594-35.816406 80-80 80zm0 0" fill="#fec9a3"/><path d="m120 144c-8.835938 0-16-7.164062-16-16s7.164062-16 16-16 16 7.164062 16 16-7.164062 16-16 16zm0-16" fill="#803f37"/><path d="m200 144c-8.835938 0-16-7.164062-16-16s7.164062-16 16-16 16 7.164062 16 16-7.164062 16-16 16zm0-16" fill="#803f37"/><path d="m150.113281 200h-6.113281v-16h6.113281c10.519531-.011719 20.894531-2.460938 30.3125-7.160156l7.148438 14.320312c-11.636719 5.800782-24.460938 8.824219-37.460938 8.839844zm0 0" fill="#f7a468"/><path d="m240 160v-64c17.671875 0 32 14.328125 32 32s-14.328125 32-32 32zm0 0" fill="#feb784"/><path d="m80 96v64c-17.671875 0-32-14.328125-32-32s14.328125-32 32-32zm0 0" fill="#feb784"/><path d="m283.414062 311.039062-61.414062-15.039062-14-16-48 16-48-16-14 16-61.414062 15.039062c-21.480469 5.261719-36.585938 24.511719-36.585938 46.625v114.335938h320v-114.335938c0-22.113281-15.105469-41.363281-36.585938-46.625zm0 0" fill="#2a71ad"/><path d="m222 296h-.183594l-61.816406 168-61.816406-168h-.183594l-26 6.9375-35.070312 8.308594c-21.644532 5.132812-36.929688 24.460937-36.929688 46.707031v114.046875h320v-114.335938c0-22.113281-15.105469-41.363281-36.585938-46.625zm0 0" fill="#3d4d63"/><path d="m98 296-17.519531 4.671875-24.480469 67.328125h40l-8 32 72 64-61.816406-168zm0 0" fill="#4c5d72"/><path d="m222 296 17.519531 4.671875 24.480469 67.328125h-40l8 32-72 64 61.816406-168zm0 0" fill="#4c5d72"/><path d="m48 400h16v72h-16zm0 0" fill="#2a3845"/><path d="m256 400h16v72h-16zm0 0" fill="#2a3845"/><path d="m117.65625 348.929688 42.34375-52.929688-48-16-14 16h.183594zm0 0" fill="#348fd9"/><path d="m202.34375 348.929688-42.34375-52.929688 48-16 14 16h-.183594zm0 0" fill="#348fd9"/><path d="m160 296-16 20v104.519531l16 43.480469 16-43.480469v-104.519531zm0 0" fill="#60d1e0"/></svg>