<svg height="464pt" viewBox="0 0 464.00408 464" width="464pt" xmlns="http://www.w3.org/2000/svg"><path d="m80 136.003906h320c17.671875 0 32 14.324219 32 32v232c0 17.671875-14.328125 32-32 32h-320c-17.671875 0-32-14.328125-32-32v-232c0-17.675781 14.328125-32 32-32zm0 0" fill="#2a71ad"/><path d="m80 168.003906h320v232h-320zm0 0" fill="#348fd9"/><path d="m136 400.003906h264v-232h-32zm0 0" fill="#3086cd"/><path d="m336 264.003906h-192v-32l96-32 96 32zm0 0" fill="#ffb531"/><path d="m232 224.003906h16v16h-16zm0 0" fill="#e8770c"/><path d="m144 336.003906h192v32h-192zm0 0" fill="#ffb531"/><path d="m160 264.003906h32v72h-32zm0 0" fill="#ffa912"/><path d="m224 264.003906h32v72h-32zm0 0" fill="#ffa912"/><path d="m288 264.003906h32v72h-32zm0 0" fill="#ffa912"/><g fill="#e8770c"><path d="m160 264.003906h32v24h-32zm0 0"/><path d="m224 264.003906h32v24h-32zm0 0"/><path d="m288 264.003906h32v24h-32zm0 0"/></g><path d="m224 112.003906c0 61.855469-50.144531 112-112 112s-112-50.144531-112-112c0-61.859375 50.144531-111.99999975 112-111.99999975s112 50.14062475 112 111.99999975zm0 0" fill="#4db7e5"/><path d="m197.273438 39.496094c-30.25 88.128906-105.601563 133.664062-160 155.753906 43.808593 39.355469 110.628906 38.019531 152.828124-3.0625 42.199219-41.078125 45.335938-107.835938 7.171876-152.691406zm0 0" fill="#48add9"/><path d="m450.6875 360.21875c-4.648438-.792969-9.410156.503906-13.011719 3.546875-3.601562 3.042969-5.679687 7.519531-5.675781 12.238281 0-8.839844-7.164062-16-16-16s-16 7.160156-16 16c0-8.839844-7.164062-16-16-16s-16 7.160156-16 16v-63.144531c.179688-8.039063-5.429688-15.050781-13.3125-16.640625-4.648438-.792969-9.410156.503906-13.011719 3.546875-3.601562 3.042969-5.679687 7.519531-5.675781 12.238281v112l-33.351562-20c-4.144532-2.496094-9.277344-2.695312-13.601563-.53125l-1.253906.632813c-4.429688 2.214843-7.375 6.589843-7.765625 11.527343-.386719 4.941407 1.839844 9.71875 5.867187 12.601563l50.105469 35.769531h128v-87.144531c.179688-8.039063-5.429688-15.050781-13.3125-16.640625zm0 0" fill="#fec9a3"/><path d="m448 72.003906-9.375 3.75c-19.910156 7.960938-41.824219 9.449219-62.625 4.25-20.800781-5.203125-42.714844-3.714844-62.625 4.246094l-9.375 3.753906v-72l9.375-3.753906c19.910156-7.960938 41.824219-9.449219 62.625-4.246094 20.800781 5.199219 42.714844 3.710938 62.625-4.25l9.375-3.74999975zm0 0" fill="#7eb457"/><path d="m232 48.003906h16v16h-16zm0 0" fill="#4db7e5"/><path d="m264 48.003906h16v16h-16zm0 0" fill="#4db7e5"/><path d="m344 96.003906h16v16h-16zm0 0" fill="#4db7e5"/><path d="m167.742188 120.003906h55.859374c.183594-2.65625.398438-5.296875.398438-8 0-2.707031-.214844-5.347656-.398438-8h-55.875c-.460937-13.457031-2.128906-26.84375-4.984374-40h50.335937c-2.628906-5.582031-5.722656-10.933594-9.238281-16h-45.273438c-4.660156-15.535156-11.117187-30.46875-19.238281-44.507812-6.964844-1.742188-14.085937-2.816406-21.257813-3.199219l3.203126 4.058594c8.738281 13.59375 15.675781 28.265625 20.636718 43.648437h-59.75c5.015625-15.570312 12.03125-30.421875 20.871094-44.1875l1.871094-3.453125c-6.851563.4375-13.652344 1.511719-20.308594 3.199219-8.148438 14.003906-14.617188 28.917969-19.265625 44.441406h-45.167969c-3.515625 5.066406-6.609375 10.417969-9.238281 16h50.238281c-2.851562 13.15625-4.507812 26.542969-4.953125 40h-55.808593c-.183594 2.652344-.398438 5.292969-.398438 8 0 2.703125.214844 5.34375.398438 8h55.808593c.449219 13.453125 2.109375 26.839844 4.960938 40h-50.246094c2.628906 5.578125 5.722656 10.929688 9.238281 16h45.175782c4.652343 15.53125 11.117187 30.460938 19.265624 44.476563 6.605469 1.667969 13.355469 2.726562 20.160157 3.152343l-1.601563-3.199218c-.136718-.261719-.289062-.527344-.449218-.800782-8.730469-13.589843-15.664063-28.257812-20.621094-43.628906h59.832031c-4.875 15.113282-11.65625 29.542969-20.179687 42.941406l-4.796876 4.800782c7.582032-.324219 15.109376-1.421875 22.46875-3.273438 8.148438-14.011718 14.609376-28.941406 19.25-44.46875h45.175782c3.515625-5.070312 6.609375-10.421875 9.238281-16h-50.253906c2.839843-13.160156 4.484375-26.546875 4.917969-40zm-90.101563-56h68.800781c3.113282 13.121094 4.9375 26.519532 5.4375 40h-79.703125c.511719-13.480468 2.34375-26.878906 5.464844-40zm68.800781 96h-68.839844c-3.105468-13.125-4.917968-26.523437-5.417968-40h79.71875c-.527344 13.480469-2.371094 26.875-5.503906 40zm0 0" fill="#79c6e8"/><path d="m438.625 3.753906c-13.132812 5.242188-27.214844 7.695313-41.34375 7.199219l-45.023438 66.007813c8.003907.082031 15.972657 1.101562 23.742188 3.042968 20.800781 5.195313 42.714844 3.710938 62.625-4.25l9.375-3.75v-71.99999975zm0 0" fill="#69a340"/></svg>