<?xml version="1.0" encoding="UTF-8"?>
<!DOCTYPE svg PUBLIC "-//W3C//DTD SVG 1.1//EN" "http://www.w3.org/Graphics/SVG/1.1/DTD/svg11.dtd">
<!-- Creator: CorelDRAW X8 -->
<svg xmlns="http://www.w3.org/2000/svg" xml:space="preserve" width="27.7577mm" height="27.7577mm" version="1.1" style="shape-rendering:geometricPrecision; text-rendering:geometricPrecision; image-rendering:optimizeQuality; fill-rule:evenodd; clip-rule:evenodd"
viewBox="0 0 482 482"
 xmlns:xlink="http://www.w3.org/1999/xlink">
 <defs>
  <style type="text/css">
   <![CDATA[
    .str1 {stroke:#373435;stroke-width:3.47096}
    .str4 {stroke:#FEFEFE;stroke-width:1.32243}
    .str0 {stroke:#373435;stroke-width:1.32243}
    .str2 {stroke:#5CC6D0;stroke-width:1.32243}
    .str3 {stroke:#448C8E;stroke-width:1.32243}
    .fil0 {fill:none}
    .fil3 {fill:#FEFEFE}
    .fil1 {fill:#5CC6D0}
    .fil2 {fill:#448C8E}
   ]]>
  </style>
 </defs>
 <g id="Capa_x0020_1">
  <metadata id="CorelCorpID_0Corel-Layer"/>
  <g id="_2205360077040">
   <g>
    <circle class="fil0 str0" cx="241" cy="241" r="240"/>
    <path class="fil0 str1" d="M12 314c128,-91 324,-95 456,6"/>
    <path class="fil1 str2" d="M12 314c128,-91 324,-95 456,6 8,-25 13,-51 13,-79 0,-133 -107,-240 -240,-240 -133,0 -240,107 -240,240 0,26 4,50 11,73z"/>
    <path class="fil2 str3" d="M468 320c-132,-101 -328,-97 -456,-6 31,97 122,167 229,167 105,0 194,-67 227,-161z"/>
   </g>
   <path class="fil3 str4" d="M325 293c-18,-3 -29,-7 -48,-9 -24,-2 -25,-6 -43,-13 -28,-10 -66,-8 -92,4 -1,10 -5,61 3,64 1,0 2,0 2,1 1,0 1,0 2,0 1,0 3,1 4,1 22,6 26,10 49,21 19,9 37,21 60,19 12,-1 61,-8 70,-11 19,-8 35,-25 47,-34 0,-12 2,-13 -2,-24 -9,-9 -22,-5 -32,2 -9,6 -10,11 -26,15 -23,5 -52,5 -68,-8 37,-5 70,13 78,-8 6,-14 -1,-12 -4,-20z"/>
   <path class="fil3 str4" d="M235 149l-7 7c-4,4 -4,3 -7,7 -5,6 -7,10 -11,16 -11,20 -11,46 0,68l9 11c0,0 3,2 4,3 10,1 14,4 21,4 8,-8 3,-3 6,-13 -1,-4 -10,-25 5,-21 12,2 3,16 18,17l0 -24c-12,-10 -23,-5 -25,-26 -1,-19 10,-21 25,-26l1 -9c4,-3 -4,-4 7,-3l1 11c0,0 36,14 20,27 -12,7 -7,-7 -21,-13l0 23c12,7 27,6 27,28 0,19 -14,21 -27,27l0 10 0 4c19,2 27,7 40,-4 6,-4 10,-7 14,-12 11,-12 16,-27 17,-44 1,-13 -1,-19 -5,-31 -7,-17 -13,-24 -25,-34 -13,-10 -69,-6 -87,-3z"/>
   <path class="fil3 str4" d="M326 103c-14,-4 -48,-2 -66,-2 -29,0 -47,-2 -21,23 14,13 14,19 54,15 10,-1 34,-21 33,-36z"/>
   <path class="fil3 str4" d="M102 347c1,5 0,3 3,5 4,3 21,2 26,1 6,-10 3,-75 3,-92 -10,-1 -23,-2 -31,1l-1 85z"/>
   <path class="fil3 str4" d="M244 265c0,0 1,1 1,1 0,1 1,2 1,2 10,7 23,8 35,9l0 -4 -7 1 -2 -12c-14,-3 -13,-6 -22,-10 -3,10 2,5 -6,13z"/>
   <path class="fil3 str4" d="M281 250c6,-1 7,-3 11,-6l1 -14 -11 -6 -1 26z"/>
   <path class="fil3 str4" d="M274 205l-1 -20c-13,1 -15,19 1,20z"/>
   <path class="fil3 str4" d="M282 171l-1 -11c-11,-1 -3,0 -7,3l5 -1c0,1 0,4 0,4 2,4 2,3 3,5z"/>
  </g>
 </g>
</svg>
