<?xml version="1.0" encoding="UTF-8"?>
<!DOCTYPE svg PUBLIC "-//W3C//DTD SVG 1.1//EN" "http://www.w3.org/Graphics/SVG/1.1/DTD/svg11.dtd">
<!-- Creator: CorelDRAW X8 -->
<svg xmlns="http://www.w3.org/2000/svg" xml:space="preserve" width="27.7577mm" height="27.7578mm" version="1.1" style="shape-rendering:geometricPrecision; text-rendering:geometricPrecision; image-rendering:optimizeQuality; fill-rule:evenodd; clip-rule:evenodd"
viewBox="0 0 2488 2488"
 xmlns:xlink="http://www.w3.org/1999/xlink">
 <defs>
  <style type="text/css">
   <![CDATA[
    .str1 {stroke:#373435;stroke-width:17.9269}
    .str5 {stroke:#448C8E;stroke-width:17.9269}
    .str4 {stroke:#FEFEFE;stroke-width:6.83016}
    .str0 {stroke:#373435;stroke-width:6.83016}
    .str2 {stroke:#5CC6D0;stroke-width:6.83016}
    .str3 {stroke:#448C8E;stroke-width:6.83016}
    .fil0 {fill:none}
    .fil3 {fill:#FEFEFE}
    .fil1 {fill:#5CC6D0}
    .fil2 {fill:#448C8E}
    .fil4 {fill:#448C8E}
   ]]>
  </style>
 </defs>
 <g id="Capa_x0020_1">
  <metadata id="CorelCorpID_0Corel-Layer"/>
  <g id="_2133741163600">
   <circle class="fil0 str0" cx="1244" cy="1244" r="1241"/>
   <path class="fil0 str1" d="M63 1624c662,-473 1673,-491 2353,28"/>
   <path class="fil1 str2" d="M63 1624c662,-473 1673,-491 2353,28 45,-128 69,-265 69,-408 0,-685 -556,-1241 -1241,-1241 -685,0 -1241,556 -1241,1241 0,132 21,260 60,380z"/>
   <path class="fil2 str3" d="M2416 1652c-680,-519 -1691,-501 -2353,-28 160,499 628,861 1181,861 542,0 1003,-348 1172,-833z"/>
  </g>
  <g id="_2133741164432">
   <path class="fil3 str4" d="M1041 1221c0,-41 15,-68 68,-68l260 0c117,0 80,109 36,109l-322 0c-15,0 -42,-26 -42,-41zm-332 -447l1070 0 0 176 -1070 0 0 -176zm-146 -73l0 333c0,21 17,43 30,53 18,12 41,14 69,14l0 696c0,32 31,63 62,63l1040 0c37,0 62,-34 62,-73l0 -686c28,0 51,-2 69,-14 13,-10 30,-32 30,-53l0 -333c0,-39 -26,-73 -63,-73l-1236 0c-37,0 -63,34 -63,73z"/>
   <path class="fil4 str5" d="M1469 1756l21 0 -1 26 -23 0 3 -26zm-510 -42c6,-5 -1,-4 13,-5 7,0 11,1 18,2l1 30 1 8 23 2 0 39 -51 -2c-8,-18 -6,-50 -5,-74zm569 20l2 -23c6,-1 10,-2 16,-2 13,1 10,-1 14,5 0,57 13,78 -59,69l1 -37c18,-1 21,3 26,-12zm-81 45c-8,5 -9,4 -24,4 -129,-1 -275,3 -398,0l1 -28 395 -1c22,-6 18,-16 18,-41l-1 -134c1,-17 -3,-19 19,-17l0 172c1,32 5,43 -10,45zm103 -238l2 0c6,6 2,-3 4,7 3,13 0,149 -1,153l-20 0 1 -160 14 0zm-82 20c38,-8 -1,-19 56,-19 4,24 2,74 2,101 0,77 -4,38 -7,91l-21 2c-19,6 8,9 -30,9l0 -184zm-485 0c0,26 0,52 0,78 0,32 7,71 -13,61 -10,-6 -1,3 -5,-7l-1 -68c0,-63 -8,-66 19,-64zm23 -7c7,-3 166,-4 178,1l0 14c-28,13 -38,-10 -30,44 15,104 2,95 58,95 90,0 71,12 83,-84 6,-42 15,-51 -30,-53l1 -18c29,-1 61,0 90,0 27,0 48,-5 62,4 0,0 9,7 10,8 0,34 7,159 -4,177 -19,9 -181,3 -216,3 -39,0 -163,5 -199,-5 -10,-3 -2,1 -8,-4 -4,-7 -8,-64 -8,-79 1,-30 0,-59 0,-88l13 -15zm208 -34c0,-14 0,-10 5,-17 17,2 13,10 13,31 0,19 4,26 -13,28 -8,-12 -5,-18 -5,-42zm-11 21c4,37 -23,43 43,40l2 -16c2,-12 -5,-22 -6,-35 19,11 10,15 12,39 2,22 11,8 34,15l-9 87c-1,9 -2,20 -8,25 -10,4 -81,4 -94,-1 -6,-14 -15,-92 -15,-113l30 -1c8,-20 -2,-28 9,-47 2,4 1,-6 2,7zm-259 4c-4,-15 -4,-41 -2,-60l27 0c7,10 1,9 7,18 7,12 6,4 11,9 9,7 7,7 5,37 -19,3 -33,3 -48,-4zm483 -33c35,-4 17,-4 28,-27l29 1c4,61 6,68 -57,64l0 -38zm-159 30c-1,-1 -1,-2 -2,-2l-18 -23 168 0 1 25 -149 0zm-264 -25l198 0c-5,5 -14,20 -22,25l-177 0 1 -25zm484 -124c0,-29 6,-47 26,-56 22,21 23,35 23,73 -1,97 10,95 -42,95 -1,-51 -7,-16 -7,-38l0 -74zm-49 107c-18,1 -21,5 -37,6l-116 -1c-80,1 -34,-12 -64,-13 -15,0 -8,9 -25,13l-195 -1c-24,-5 -14,-1 -21,-28 -3,-9 0,4 -3,-7 -1,-6 -1,-10 -1,-16 0,-51 10,-87 69,-87l390 1c22,6 9,115 3,133zm108 -104c0,-28 -9,-49 -20,-65 26,1 36,45 36,76 1,111 14,124 -34,125 -34,1 -30,-1 -34,-9 5,-9 1,-5 12,-7 28,-5 5,8 39,-13l1 -107zm-580 79c-26,0 -21,1 -21,-29 1,-42 0,-67 35,-101 22,-20 42,-15 76,-15 85,0 392,-4 442,1 -30,29 -21,89 -21,142l-20 2c0,-128 12,-120 -63,-119 -99,0 -278,-4 -366,0 -27,1 -44,18 -53,37 -12,24 -9,52 -9,82zm605 228c-10,-8 -1,3 -5,-8 -2,-5 -2,-5 -2,-10 0,-4 0,-16 1,-21 0,-27 0,-54 0,-81 0,-81 5,-39 8,-70 4,-28 2,-131 -6,-153 -20,-54 -55,-41 -117,-41 -83,0 -436,-9 -466,9 -37,23 -50,68 -49,111 1,49 -4,26 -6,52 -3,51 -1,57 24,71 -1,40 1,84 0,123 -1,27 -6,2 -6,56 0,18 -3,40 9,51 10,11 37,11 55,9 25,-3 3,-4 21,-8l390 -1c38,0 87,6 120,3 43,-4 23,-54 29,-92z"/>
  </g>
 </g>
</svg>
