<?xml version="1.0" encoding="UTF-8"?>
<!DOCTYPE svg PUBLIC "-//W3C//DTD SVG 1.1//EN" "http://www.w3.org/Graphics/SVG/1.1/DTD/svg11.dtd">
<!-- Creator: CorelDRAW X8 -->
<svg xmlns="http://www.w3.org/2000/svg" xml:space="preserve" width="27.7577mm" height="27.7577mm" version="1.1" style="shape-rendering:geometricPrecision; text-rendering:geometricPrecision; image-rendering:optimizeQuality; fill-rule:evenodd; clip-rule:evenodd"
viewBox="0 0 255 255"
 xmlns:xlink="http://www.w3.org/1999/xlink">
 <defs>
  <style type="text/css">
   <![CDATA[
    .str1 {stroke:#373435;stroke-width:1.83789}
    .str4 {stroke:#FEFEFE;stroke-width:0.700237}
    .str0 {stroke:#373435;stroke-width:0.700237}
    .str2 {stroke:#5CC6D0;stroke-width:0.700237}
    .str3 {stroke:#448C8E;stroke-width:0.700237}
    .fil0 {fill:none}
    .fil3 {fill:#FEFEFE}
    .fil1 {fill:#5CC6D0}
    .fil2 {fill:#448C8E}
   ]]>
  </style>
 </defs>
 <g id="Capa_x0020_1">
  <metadata id="CorelCorpID_0Corel-Layer"/>
  <g id="_2205137617136">
   <circle class="fil0 str0" cx="128" cy="128" r="127"/>
   <path class="fil0 str1" d="M6 166c68,-48 172,-50 242,3"/>
   <path class="fil1 str2" d="M6 166c68,-48 172,-50 242,3 4,-13 7,-27 7,-41 0,-71 -57,-128 -127,-128 -71,0 -128,57 -128,128 0,13 2,26 6,38z"/>
   <path class="fil2 str3" d="M248 169c-70,-53 -174,-51 -242,-3 17,52 65,89 122,89 55,0 102,-36 120,-86z"/>
  </g>
  <path class="fil3 str4" d="M151 157c9,0 12,0 18,-3 1,-5 2,-9 -2,-14 -4,-6 -5,-3 -9,-8 -3,0 -34,-4 -36,-5 -5,-2 -10,-4 -8,-11 1,-7 9,-8 9,-8 -4,-7 -1,2 -1,-2 1,-4 3,-5 5,-8l-8 -1c0,-1 -1,-1 -1,-1 4,0 6,0 10,1 5,1 -2,2 9,1 0,0 -1,0 -1,0 -13,5 -5,2 -4,5l8 0 1 -14c9,-6 -7,-4 2,0 1,1 1,6 4,2 0,0 1,1 2,2 -1,-9 -3,-4 2,-9 -43,-14 -49,3 -102,5l0 49c2,6 7,2 21,11 26,19 51,6 81,8z"/>
  <path class="fil3 str4" d="M170 114c-1,1 -8,4 4,3 4,0 6,-2 11,-4l1 6c7,3 2,2 4,5 6,7 17,4 14,19 -13,0 -4,-3 -13,-9 -2,4 -2,9 -1,15 23,8 21,24 5,31 -12,6 0,3 -9,10 -6,0 -15,1 -16,-8 -1,1 -1,1 -1,1l-5 4c0,0 -1,1 -1,1 -1,-2 -2,-4 -5,-5 -4,-2 0,-6 -3,1 2,3 5,7 9,9 12,6 19,8 33,5 3,0 6,-1 8,-2 10,-5 12,-6 19,-15 1,-2 2,-4 4,-6 8,-13 5,-35 -4,-47 -7,-9 -15,-15 -30,-19 -8,0 -19,0 -24,5z"/>
  <path class="fil3 str4" d="M22 101c0,43 -5,52 17,48 10,-1 6,-11 6,-32 0,-16 3,-32 -4,-34 -24,-7 -19,14 -19,18z"/>
  <path class="fil3 str4" d="M123 108c21,-2 15,3 30,9 21,-10 27,-8 18,-19 -3,-2 -19,-12 -20,-14 -5,5 -3,0 -2,9 -1,-1 -2,-2 -2,-2 -3,4 -3,-1 -4,-2 -9,-4 7,-6 -2,0l-1 14 -8 0c-1,-3 -9,0 4,-5 0,0 1,0 1,0 -11,1 -4,0 -9,-1 -4,-1 -6,-1 -10,-1 0,0 1,0 1,1l8 1c-2,3 -4,4 -5,8 0,4 -3,-5 1,2z"/>
  <path class="fil3 str4" d="M167 162c-10,1 -13,2 -23,-1 0,7 0,7 3,13 1,2 2,5 3,6 0,0 1,2 5,4 3,-7 -1,-3 3,-1 3,1 4,3 5,5 0,0 1,-1 1,-1l5 -4c0,0 0,0 1,-1 1,9 10,8 16,8l-1 -7c-3,-2 -15,-4 -16,-13 -2,-9 0,-5 1,-6 11,-6 4,7 15,10l0 -16 -10 -4c-4,4 -2,4 -8,8z"/>
  <path class="fil3 str4" d="M157 127c6,2 9,3 13,7 5,-3 2,-2 7,-5 2,-1 6,-2 8,-3l1 -7 -1 -6c-5,2 -7,4 -11,4 -12,1 -5,-2 -4,-3 -10,2 -10,4 -16,10 1,2 0,2 3,3z"/>
  <path class="fil3 str4" d="M189 174c7,-1 8,-3 9,-11l-8 -4 -1 15z"/>
  <path class="fil3 str4" d="M184 147c2,-5 2,-8 0,-13 -8,4 -8,10 0,13z"/>
 </g>
</svg>
