<?xml version="1.0" encoding="UTF-8"?>
<!DOCTYPE svg PUBLIC "-//W3C//DTD SVG 1.1//EN" "http://www.w3.org/Graphics/SVG/1.1/DTD/svg11.dtd">
<!-- Creator: CorelDRAW X8 -->
<svg xmlns="http://www.w3.org/2000/svg" xml:space="preserve" width="27.7578mm" height="27.7576mm" version="1.1" style="shape-rendering:geometricPrecision; text-rendering:geometricPrecision; image-rendering:optimizeQuality; fill-rule:evenodd; clip-rule:evenodd"
viewBox="0 0 398 398"
 xmlns:xlink="http://www.w3.org/1999/xlink">
 <defs>
  <style type="text/css">
   <![CDATA[
    .str1 {stroke:#373435;stroke-width:2.86682}
    .str4 {stroke:#FEFEFE;stroke-width:1.09226}
    .str0 {stroke:#373435;stroke-width:1.09226}
    .str2 {stroke:#5CC6D0;stroke-width:1.09226}
    .str3 {stroke:#448C8E;stroke-width:1.09226}
    .fil0 {fill:none}
    .fil3 {fill:#FEFEFE}
    .fil1 {fill:#5CC6D0}
    .fil2 {fill:#448C8E}
   ]]>
  </style>
 </defs>
 <g id="Capa_x0020_1">
  <metadata id="CorelCorpID_0Corel-Layer"/>
  <g id="_2133513908992">
   <circle class="fil0 str0" cx="199" cy="199" r="198"/>
   <path class="fil0 str1" d="M10 260c106,-76 268,-79 376,4"/>
   <path class="fil1 str2" d="M10 260c106,-76 268,-79 376,4 7,-20 11,-42 11,-65 0,-110 -88,-198 -198,-198 -110,0 -198,88 -198,198 0,21 3,42 9,61z"/>
   <path class="fil2 str3" d="M386 264c-108,-83 -270,-80 -376,-4 26,80 101,137 189,137 87,0 160,-55 187,-133z"/>
  </g>
  <path class="fil3 str4" d="M261 319c2,-26 1,-64 0,-91 0,-34 -16,-41 -50,-41 -80,0 -74,0 -73,108 8,2 18,9 27,13 24,12 75,20 96,11z"/>
  <path class="fil3 str4" d="M241 140c17,-55 -67,-84 -87,-28 -20,56 69,88 87,28z"/>
  <path class="fil3 str4" d="M126 273c2,-38 -9,-77 28,-94 2,-1 4,-1 6,-3 3,-1 3,-1 5,-3 -18,-9 -5,-8 -37,-8 -49,0 -38,36 -38,90 10,8 22,14 36,18z"/>
  <path class="fil3 str4" d="M245 178c9,6 26,10 28,41 2,23 -1,48 1,72l33 -3c2,-104 14,-115 -65,-113l3 3z"/>
  <path class="fil3 str4" d="M144 153c-4,-17 -7,-25 -2,-44 6,-19 14,-18 19,-30 -69,-25 -82,73 -17,74z"/>
  <path class="fil3 str4" d="M241 86c6,12 13,21 14,38 1,17 -5,27 -11,38 61,12 67,-86 -3,-76z"/>
 </g>
</svg>
