<?xml version="1.0" encoding="UTF-8"?>
<!DOCTYPE svg PUBLIC "-//W3C//DTD SVG 1.1//EN" "http://www.w3.org/Graphics/SVG/1.1/DTD/svg11.dtd">
<!-- Creator: CorelDRAW X8 -->
<svg xmlns="http://www.w3.org/2000/svg" xml:space="preserve" width="27.7577mm" height="27.7577mm" version="1.1" style="shape-rendering:geometricPrecision; text-rendering:geometricPrecision; image-rendering:optimizeQuality; fill-rule:evenodd; clip-rule:evenodd"
viewBox="0 0 396 396"
 xmlns:xlink="http://www.w3.org/1999/xlink">
 <defs>
  <style type="text/css">
   <![CDATA[
    .str1 {stroke:#373435;stroke-width:2.85149}
    .str0 {stroke:#373435;stroke-width:1.08642}
    .str2 {stroke:#5CC6D0;stroke-width:1.08642}
    .str3 {stroke:#448C8E;stroke-width:1.08642}
    .fil0 {fill:none}
    .fil1 {fill:#5CC6D0}
    .fil2 {fill:#448C8E}
    .fil3 {fill:#FEFEFE}
   ]]>
  </style>
 </defs>
 <g id="Capa_x0020_1">
  <metadata id="CorelCorpID_0Corel-Layer"/>
  <g id="_2133738877696">
   <circle class="fil0 str0" cx="198" cy="198" r="197"/>
   <path class="fil0 str1" d="M10 258c105,-75 266,-78 374,5"/>
   <path class="fil1 str2" d="M10 258c105,-75 266,-78 374,5 7,-21 11,-42 11,-65 0,-109 -88,-197 -197,-197 -109,0 -197,88 -197,197 0,21 3,41 9,60z"/>
   <path class="fil2 str3" d="M384 263c-108,-83 -269,-80 -374,-5 25,80 100,137 188,137 86,0 159,-55 186,-132z"/>
  </g>
  <path class="fil3" d="M194 261l0 0zm-20 -24l0 0zm28 -41l1 -8 39 0 0 10 0 20 -40 0 0 -22zm-51 -7c3,-2 0,0 2,-1l35 0 1 5c1,0 1,0 0,0l0 25 -30 0c-3,-1 -1,1 -2,-3l-3 -15 -3 -11zm134 18l-2 11 -28 0 0 -17 1 -13 33 0c1,0 2,0 0,0l-4 19zm-43 -65l0 29 -40 0 0 -30 40 1zm13 -1l44 1 -6 29 -38 0 0 -30zm-111 13c-1,-1 -1,0 0,-1l-2 -11 45 0 1 29 -40 0 -4 -17zm98 -12l0 0zm-102 51c2,1 2,1 0,1l1 7c0,0 0,0 1,0l0 3c0,0 1,2 1,2 5,28 3,24 16,25l2 18 -4 2c-2,2 -4,4 -6,7 -2,3 -3,6 -3,10l0 0c-1,7 1,9 1,13 6,5 6,10 16,12 1,-1 0,-1 1,1l11 0c0,-2 0,-2 1,-1l6 -2c2,-3 5,-4 7,-7 1,-1 1,-2 2,-4l1 -3c0,0 1,-1 1,-1 0,0 0,0 0,0l1 -2c-1,-3 -1,-9 -2,-13l54 0 -2 5c-1,13 2,14 6,21l1 1c6,4 12,8 20,6 5,-1 9,-3 12,-5 3,-3 4,-6 7,-9l1 -4c1,-8 0,-12 -2,-18 -4,-2 -4,-5 -10,-8 -5,-3 -9,-4 -15,-3 -6,1 -85,1 -90,0 -1,-2 -1,-2 -2,-5 0,-2 0,-4 0,-5l-1 -5c9,-3 56,-1 69,-1 12,0 23,0 35,0 16,0 17,3 19,-14 -1,-1 -1,0 0,-1l2 -5c3,-19 8,-38 12,-57 2,-13 7,-23 -1,-25l-170 -1c-2,-6 -4,-23 -8,-26 0,0 -44,-1 -47,1 -3,3 -2,8 2,8 5,1 35,-1 37,1 2,2 14,75 17,81z"/>
 </g>
</svg>
