<?xml version="1.0" encoding="UTF-8"?>
<!DOCTYPE svg PUBLIC "-//W3C//DTD SVG 1.1//EN" "http://www.w3.org/Graphics/SVG/1.1/DTD/svg11.dtd">
<!-- Creator: CorelDRAW X8 -->
<svg xmlns="http://www.w3.org/2000/svg" xml:space="preserve" width="27.7577mm" height="27.7578mm" version="1.1" style="shape-rendering:geometricPrecision; text-rendering:geometricPrecision; image-rendering:optimizeQuality; fill-rule:evenodd; clip-rule:evenodd"
viewBox="0 0 473 473"
 xmlns:xlink="http://www.w3.org/1999/xlink">
 <defs>
  <style type="text/css">
   <![CDATA[
    .str1 {stroke:#373435;stroke-width:3.40636}
    .str4 {stroke:#FEFEFE;stroke-width:1.29782}
    .str0 {stroke:#373435;stroke-width:1.29782}
    .str2 {stroke:#5CC6D0;stroke-width:1.29782}
    .str3 {stroke:#448C8E;stroke-width:1.29782}
    .fil0 {fill:none}
    .fil3 {fill:#FEFEFE}
    .fil1 {fill:#5CC6D0}
    .fil2 {fill:#448C8E}
   ]]>
  </style>
 </defs>
 <g id="Capa_x0020_1">
  <metadata id="CorelCorpID_0Corel-Layer"/>
  <g id="_2133891187168">
   <circle class="fil0 str0" cx="236" cy="236" r="236"/>
   <path class="fil0 str1" d="M12 309c126,-90 318,-94 447,5"/>
   <path class="fil1 str2" d="M12 309c126,-90 318,-94 447,5 9,-24 13,-50 13,-78 0,-130 -105,-235 -236,-235 -130,0 -235,105 -235,235 0,26 4,50 11,73z"/>
   <path class="fil2 str3" d="M459 314c-129,-99 -321,-95 -447,-5 30,94 119,163 224,163 103,0 191,-66 223,-158z"/>
  </g>
  <path class="fil3 str4" d="M184 276l-11 8c-2,2 -4,3 -7,5 -3,3 -4,4 -7,5 -4,6 -2,22 -2,31l1 5 156 0 1 -6c0,-7 1,-25 -2,-30 -5,-2 -9,-7 -14,-10l-11 -8c-6,-4 -20,-15 -24,-17 -1,13 -5,36 -15,43 -2,-1 -7,-13 -9,-16 -4,-8 1,-8 5,-16 -7,-14 -14,-8 -17,0 1,4 3,5 5,9 3,5 -9,22 -10,23 -4,-5 -8,-9 -11,-18 -2,-7 -4,-16 -4,-24 -2,0 -21,13 -24,16z"/>
  <path class="fil3 str4" d="M245 142l-18 0c-7,4 -13,3 -21,14 -7,8 -6,19 -6,30 -17,10 -1,26 -1,27 2,3 0,21 16,26 0,9 -2,17 20,18 24,0 22,-9 22,-18 19,-12 12,-17 16,-26 2,-4 6,-5 6,-14 1,-12 -4,-9 -7,-14 0,-12 1,-20 -5,-29 -7,-9 -11,-8 -22,-14z"/>
  <path class="fil3 str4" d="M126 215c-13,3 -1,21 -1,21 2,4 1,7 4,12 2,4 4,5 8,7 0,11 3,13 16,13 18,1 17,-6 17,-13 16,-13 7,-10 12,-20 0,0 11,-14 -1,-20 0,-21 -5,-33 -27,-33 -12,0 -16,2 -22,8 -7,7 -6,14 -6,25z"/>
  <path class="fil3 str4" d="M291 215c-12,3 0,21 0,21 4,10 0,14 12,19 0,11 3,13 15,13 18,1 17,-5 17,-13 17,-14 7,-13 13,-21 10,-16 -1,-14 -2,-23 0,-10 0,-13 -5,-20 -5,-8 -21,-13 -35,-8 -12,5 -15,16 -15,32z"/>
  <path class="fil3 str4" d="M94 297l0 27 63 1c0,-9 -2,-25 2,-31 -6,-9 -3,-8 1,-15 -1,-3 -2,-4 -4,-7 -7,0 -6,1 -9,7 3,6 6,5 3,12 -2,3 -4,9 -7,11 -7,-7 -10,-19 -11,-32 -10,6 -33,25 -38,27z"/>
  <path class="fil3 str4" d="M313 294c3,5 2,23 2,30l64 0 0 -26c-8,-5 -13,-9 -20,-15l-19 -13c-1,7 -1,13 -3,19 -2,4 -7,15 -8,13 0,0 0,0 -1,1 -2,-3 -4,-9 -6,-13 -3,-5 1,-6 3,-11 -1,-3 -2,-4 -3,-7 -7,1 -7,1 -10,7 4,8 7,6 1,15z"/>
  <path class="fil3 str4" d="M288 276l11 8 -2 -14c-3,2 -5,5 -9,6z"/>
  <path class="fil3 str4" d="M173 284l11 -8c-7,-3 -4,-5 -9,-5l-2 13z"/>
 </g>
</svg>
