<?xml version="1.0" encoding="UTF-8"?>
<!DOCTYPE svg PUBLIC "-//W3C//DTD SVG 1.1//EN" "http://www.w3.org/Graphics/SVG/1.1/DTD/svg11.dtd">
<!-- Creator: CorelDRAW X8 -->
<svg xmlns="http://www.w3.org/2000/svg" xml:space="preserve" width="27.7576mm" height="27.7576mm" version="1.1" style="shape-rendering:geometricPrecision; text-rendering:geometricPrecision; image-rendering:optimizeQuality; fill-rule:evenodd; clip-rule:evenodd"
viewBox="0 0 622 622"
 xmlns:xlink="http://www.w3.org/1999/xlink">
 <defs>
  <style type="text/css">
   <![CDATA[
    .str1 {stroke:#373435;stroke-width:4.47886}
    .str4 {stroke:#FEFEFE;stroke-width:1.70645}
    .str0 {stroke:#373435;stroke-width:1.70645}
    .str2 {stroke:#5CC6D0;stroke-width:1.70645}
    .str3 {stroke:#448C8E;stroke-width:1.70645}
    .fil0 {fill:none}
    .fil3 {fill:#FEFEFE}
    .fil1 {fill:#5CC6D0}
    .fil2 {fill:#448C8E}
   ]]>
  </style>
 </defs>
 <g id="Capa_x0020_1">
  <metadata id="CorelCorpID_0Corel-Layer"/>
  <g id="_2134537965488">
   <circle class="fil0 str0" cx="311" cy="311" r="310"/>
   <path class="fil0 str1" d="M16 406c165,-118 418,-123 588,7"/>
   <path class="fil1 str2" d="M16 406c165,-118 418,-123 588,7 11,-32 17,-67 17,-102 0,-171 -139,-310 -310,-310 -171,0 -310,139 -310,310 0,33 5,65 15,95z"/>
   <path class="fil2 str3" d="M604 413c-170,-130 -423,-125 -588,-7 40,124 157,215 295,215 135,0 251,-87 293,-208z"/>
  </g>
  <g id="_2134537967824">
   <path class="fil3 str4" d="M180 503l-21 -23c-3,-4 -5,-5 -8,-9l-14 -17c-4,-4 -4,-4 -7,-8 -3,-4 -5,-5 -8,-9l65 -58c5,-4 9,-7 14,-11 31,-20 50,-12 79,-5 72,17 127,-7 127,23 0,21 -33,15 -60,15l-56 0c-8,1 -8,3 -11,8 7,11 9,7 21,7l64 0c19,0 37,6 52,-12 9,-11 8,-23 2,-36 16,-10 44,-52 62,-52 10,0 18,8 18,18 0,12 -46,54 -57,64 -10,11 -53,56 -63,60 -24,8 -130,-3 -146,5 -3,2 -5,3 -8,6 -4,3 -6,4 -10,7 -12,9 -23,18 -35,27zm64 -164c-6,0 -19,2 -24,4 -26,7 -35,18 -54,33 -10,8 -19,20 -30,28 -5,4 -28,25 -28,30 0,13 2,13 15,27 66,75 40,72 113,19 8,-5 15,-5 27,-5 22,0 43,0 64,0 76,0 49,11 128,-68l48 -48c11,-11 11,-13 11,-30 0,-15 -18,-29 -33,-29 -32,0 -58,58 -78,57 -3,0 -13,-2 -18,-2 -33,-5 -59,6 -109,-9 -8,-3 -22,-7 -32,-7z"/>
   <path class="fil3 str4" d="M270 183c0,-7 10,-24 16,-24 15,0 12,13 35,-3 6,-4 11,-5 16,-8 19,-14 -7,-29 30,-29 19,0 7,19 19,28 3,3 12,6 22,13 21,15 27,-18 43,12 10,20 -14,17 -14,34l0 28c0,20 28,11 11,39 -10,17 -12,4 -31,4 -6,0 -10,4 -15,7 -5,3 -12,5 -16,9 -15,11 5,28 -26,28 -6,0 -9,-1 -13,-3 -3,-13 0,-19 -11,-26l-24 -14c-17,-9 -23,16 -36,-6 -14,-22 -1,-18 7,-27 7,-8 3,-13 3,-29 0,-9 4,-12 -3,-20 -2,-3 -13,-10 -13,-13zm36 -36c-7,0 -10,-5 -18,-5 -19,0 -33,19 -33,43 0,18 14,5 15,34 0,12 3,12 -4,18 -4,4 -8,6 -10,14 -5,16 5,35 18,42 22,12 17,-9 47,9 9,5 6,7 9,16 9,28 58,24 64,1 2,-11 1,-11 8,-16 22,-15 30,-5 35,-5 19,0 33,-25 33,-39 0,-19 -11,-12 -16,-41 -3,-22 16,-16 16,-38 0,-13 -11,-36 -33,-36 -24,0 -6,9 -33,-5 -16,-9 -4,-15 -16,-28 -12,-11 -52,-15 -57,12 -3,13 -7,12 -17,19 -2,1 -8,5 -8,5z"/>
   <path class="fil3 str4" d="M362 250c-39,0 -39,-60 0,-60 17,0 31,16 31,28 0,18 -14,32 -31,32zm-46 -31c0,42 49,63 79,34 31,-30 5,-80 -32,-80 -25,0 -47,21 -47,46z"/>
  </g>
 </g>
</svg>
