<?xml version="1.0" encoding="UTF-8"?>
<!DOCTYPE svg PUBLIC "-//W3C//DTD SVG 1.1//EN" "http://www.w3.org/Graphics/SVG/1.1/DTD/svg11.dtd">
<!-- Creator: CorelDRAW X8 -->
<svg xmlns="http://www.w3.org/2000/svg" xml:space="preserve" width="27.7578mm" height="27.7577mm" version="1.1" style="shape-rendering:geometricPrecision; text-rendering:geometricPrecision; image-rendering:optimizeQuality; fill-rule:evenodd; clip-rule:evenodd"
viewBox="0 0 2569 2569"
 xmlns:xlink="http://www.w3.org/1999/xlink">
 <defs>
  <style type="text/css">
   <![CDATA[
    .str0 {stroke:#FEFEFE;stroke-width:18.5121}
    .str2 {stroke:#373435;stroke-width:18.5121}
    .str1 {stroke:#373435;stroke-width:7.05311}
    .str3 {stroke:#5CC6D0;stroke-width:7.05311}
    .str4 {stroke:#448C8E;stroke-width:7.05311}
    .fil1 {fill:none}
    .fil0 {fill:#FEFEFE}
    .fil2 {fill:#5CC6D0}
    .fil3 {fill:#448C8E}
   ]]>
  </style>
 </defs>
 <g id="Capa_x0020_1">
  <metadata id="CorelCorpID_0Corel-Layer"/>
  <path class="fil0 str0" d="M775 1787c28,-28 29,73 23,-175l-178 -3c-55,9 -37,11 -50,16l214 -3 -9 165z"/>
  <path class="fil0 str0" d="M364 1633c73,0 -10,-42 -23,-48 23,26 7,12 23,48z"/>
  <g id="_2133891179744">
   <circle class="fil1 str1" cx="1285" cy="1285" r="1281"/>
   <path class="fil1 str2" d="M65 1677c684,-488 1727,-507 2430,29"/>
   <path class="fil2 str3" d="M65 1677c684,-488 1727,-507 2430,29 46,-132 71,-274 71,-421 0,-708 -574,-1281 -1281,-1281 -708,0 -1281,573 -1281,1281 0,136 21,268 61,392z"/>
   <path class="fil3 str4" d="M2495 1706c-703,-536 -1746,-517 -2430,-29 165,515 649,889 1220,889 560,0 1036,-360 1210,-860z"/>
  </g>
  <path class="fil0 str0" d="M1764 1720l47 0 -4 57 -50 0 7 -57zm-1129 -94c13,-11 -1,-8 30,-9 14,-1 23,1 38,3l2 66 4 19 51 4 -1 87 -113 -6c-17,-39 -12,-109 -11,-164zm1260 46l4 -51c13,-3 23,-5 36,-5 28,2 21,-4 30,11 1,127 29,173 -130,153l2 -82c39,-4 46,5 58,-26zm-179 99c-18,12 -21,8 -54,8 -284,-2 -607,8 -880,0l1 -63 874 0c50,-13 41,-37 40,-91l-1 -297c1,-37 -8,-42 42,-38l0 381c1,72 11,96 -22,100zm227 -528l4 1c14,12 4,-6 10,15 7,29 -1,330 -3,340l-44 -1 3 -353 30 -2zm-181 44c83,-17 -3,-40 124,-41 10,54 3,163 3,223 0,171 -9,85 -14,202l-47 3c-43,15 18,22 -66,22l0 -409zm-1074 2c0,57 0,115 0,172 0,70 16,158 -28,134 -22,-12 -3,8 -12,-16l-1 -149c0,-139 -19,-146 41,-141zm52 -17c16,-5 366,-8 394,2l0 31c-63,28 -85,-22 -68,97 33,230 5,212 129,211 199,-1 158,26 184,-186 12,-93 33,-112 -65,-117l1 -40c65,-3 134,-1 199,-1 60,0 106,-9 137,9 1,1 21,17 23,20 0,74 15,352 -10,391 -41,19 -399,7 -477,7 -86,0 -362,10 -441,-13 -21,-6 -4,3 -17,-7 -9,-17 -17,-141 -17,-176 0,-65 0,-130 0,-195l28 -33zm460 -76c0,-29 0,-21 11,-36 38,4 28,22 28,68 0,42 9,58 -28,61 -18,-25 -11,-38 -11,-93zm-24 48c9,82 -52,94 95,89l4 -35c4,-27 -11,-50 -13,-80 41,26 21,35 26,88 5,48 24,18 75,33l-20 193c-2,20 -3,45 -17,54 -23,9 -180,10 -208,0 -14,-32 -33,-206 -33,-251l67 -3c17,-44 -6,-61 20,-103 4,9 0,-14 4,15zm-573 9c-10,-33 -9,-92 -5,-132l60 -1c14,22 2,20 14,39 16,26 14,10 26,20 19,16 15,17 10,83 -42,6 -73,6 -105,-9zm1068 -73c77,-10 38,-8 61,-60l66 3c8,134 12,150 -126,140l-1 -83zm-352 66c-1,-1 -2,-4 -3,-5l-41 -51 372 0 1 56 -329 0zm-584 -56l438 0c-11,13 -30,44 -48,56l-392 1 2 -57zm1071 -274c0,-65 13,-104 58,-124 47,47 50,78 49,163 0,214 24,209 -90,210 -4,-114 -17,-35 -17,-85l0 -164zm-109 238c-39,2 -46,10 -81,11l-258 0c-176,1 -74,-28 -140,-29 -33,0 -19,19 -55,28l-433 -2c-53,-11 -30,-3 -46,-61 -6,-22 -1,7 -6,-17 -2,-12 -2,-22 -2,-35 -1,-113 22,-193 153,-193l861 2c50,14 22,254 7,296zm240 -230c0,-62 -20,-110 -46,-144 60,0 82,99 82,167 0,246 30,274 -77,276 -74,2 -66,0 -74,-19 10,-20 2,-10 27,-15 62,-12 11,17 86,-28l2 -237zm-1284 174c-58,0 -47,2 -45,-65 2,-93 -1,-148 77,-222 48,-45 93,-34 167,-34 189,0 869,-8 979,2 -68,65 -48,198 -47,315l-44 4c0,-284 26,-265 -140,-265 -220,1 -614,-8 -809,0 -60,3 -98,42 -118,83 -27,53 -20,115 -20,182zm1340 503c-23,-16 -3,7 -12,-17 -5,-11 -3,-9 -5,-21 0,-10 2,-36 2,-48 1,-59 0,-119 0,-179 0,-179 11,-87 19,-155 7,-61 4,-289 -14,-337 -44,-121 -121,-91 -259,-91 -183,0 -965,-20 -1030,20 -83,51 -111,149 -109,244 2,110 -10,58 -14,116 -7,113 -1,125 53,158 -1,89 3,184 0,272 -3,58 -13,3 -13,124 0,40 -6,87 19,113 24,23 83,23 122,19 55,-6 8,-9 48,-18l862 -2c83,0 192,13 265,6 95,-9 52,-119 66,-204z"/>
 </g>
</svg>
