<?xml version="1.0" encoding="UTF-8"?>
<!DOCTYPE svg PUBLIC "-//W3C//DTD SVG 1.1//EN" "http://www.w3.org/Graphics/SVG/1.1/DTD/svg11.dtd">
<!-- Creator: CorelDRAW X8 -->
<svg xmlns="http://www.w3.org/2000/svg" xml:space="preserve" width="27.7577mm" height="27.7578mm" version="1.1" style="shape-rendering:geometricPrecision; text-rendering:geometricPrecision; image-rendering:optimizeQuality; fill-rule:evenodd; clip-rule:evenodd"
viewBox="0 0 992 992"
 xmlns:xlink="http://www.w3.org/1999/xlink">
 <defs>
  <style type="text/css">
   <![CDATA[
    .str1 {stroke:#373435;stroke-width:7.15008}
    .str4 {stroke:#FEFEFE;stroke-width:2.72418}
    .str0 {stroke:#373435;stroke-width:2.72418}
    .str2 {stroke:#5CC6D0;stroke-width:2.72418}
    .str3 {stroke:#448C8E;stroke-width:2.72418}
    .fil0 {fill:none}
    .fil3 {fill:#FEFEFE}
    .fil1 {fill:#5CC6D0}
    .fil2 {fill:#448C8E}
   ]]>
  </style>
 </defs>
 <g id="Capa_x0020_1">
  <metadata id="CorelCorpID_0Corel-Layer"/>
  <g id="_2134535156704">
   <circle class="fil0 str0" cx="496" cy="496" r="495"/>
   <path class="fil0 str1" d="M25 648c264,-189 667,-196 939,11"/>
   <path class="fil1 str2" d="M25 648c264,-189 667,-196 939,11 17,-51 27,-106 27,-163 0,-273 -222,-495 -495,-495 -273,0 -495,222 -495,495 0,53 9,104 24,152z"/>
   <path class="fil2 str3" d="M964 659c-272,-207 -675,-200 -939,-11 64,199 251,343 471,343 217,0 400,-139 468,-332z"/>
  </g>
  <path class="fil3 str4" d="M425 498c14,14 20,34 71,34 16,0 31,-3 43,-9 13,-7 18,-14 27,-25 51,8 105,51 104,105l-348 0c-1,-25 22,-59 32,-70 16,-16 40,-29 71,-35zm71 16c-59,0 -53,-33 -53,-57 21,5 38,22 53,22 12,0 36,-16 53,-22 0,23 8,57 -53,57zm-88 -159c0,-41 18,-55 58,-58 61,-3 58,-16 84,-25 20,22 34,28 34,73 0,35 -4,65 -28,84 -6,5 -19,14 -29,18 -46,16 -13,22 -47,5 -28,-14 -72,-21 -72,-97zm-13 -38c-3,-26 -9,-51 -1,-77 21,-65 124,-88 143,-26 59,2 70,35 61,93 -17,-29 -22,-42 -52,-57 -13,7 -14,14 -34,21 -64,25 -65,-16 -117,46zm52 -149l-19 6c-14,12 -20,12 -29,24 -9,10 -12,19 -20,30l-4 15 -2 17 0 19 1 15 0 15c0,0 9,4 2,20l-3 18 3 15c6,14 14,19 17,28 9,23 13,37 32,52l0 22c0,3 1,6 0,9 -1,6 -2,5 -3,8l-13 1 -31 12c-6,5 -12,7 -19,13 -8,6 -14,12 -19,18 -13,12 -21,33 -30,41l-6 41 -2 13 8 0 19 0 15 0 19 0 14 0 19 0 15 0 19 0 14 0 20 0 14 0 19 0 14 0 20 0 14 0 19 0 15 0 19 0 14 0 19 0 15 0 19 0 14 0 11 0 -2 -35 -9 -21c-14,-34 -37,-52 -66,-70l-40 -16c-8,0 -6,7 -6,-13l-1 -24c3,-2 5,-4 8,-7 12,-9 11,-10 18,-23 2,-4 3,-8 5,-12 3,-15 11,-24 20,-36l3 -19 -4 -15 -2 -7c2,-11 2,-25 7,-34l-2 -11 0 -14 -3 -20c-7,-11 -7,-16 -17,-25 -6,-6 -15,-11 -23,-17 -44,-10 -21,-10 -47,-29l-32 -11 -19 1 -31 6z"/>
  <path class="fil3 str4" d="M260 537l-15 8c-5,3 -12,6 -17,9 -9,5 -8,6 -17,10 -6,5 -13,10 -18,15l-17 15 -1 4c-8,14 -11,15 -14,34l0 14 10 31c11,17 26,26 40,40 20,12 58,34 80,38l36 10 14 4 31 6 0 22 0 19 1 15 23 -12c7,-8 21,-15 31,-22 10,-5 16,-10 25,-15 11,-7 17,-13 27,-17 8,-10 5,-4 16,-12 -16,-12 -32,-23 -49,-33 -4,-2 -10,-6 -12,-7 -16,-10 -49,-29 -58,-40l-4 9 0 15 0 29 -44 -10 -21 -8 -29 -10c-15,-7 -42,-19 -51,-33 -4,-3 -2,-1 -6,-4 -23,-23 -8,-56 11,-76 8,-7 18,-14 31,-17l1 -5c0,-3 1,-7 2,-11 4,-10 3,-5 6,-9l1 -8 -13 2z"/>
  <path class="fil3 str4" d="M724 550l5 14 1 3c17,6 43,27 48,43 3,4 6,7 6,15 0,12 -2,9 -4,12l-2 11c-5,11 -4,11 -12,18 -7,9 -10,9 -22,15 -4,6 -22,14 -31,17 -9,7 -23,11 -36,13l-14 4 -36 9c-9,-1 -19,4 -30,5l-18 2 -30 2 0 50 15 -2 22 -2c31,-3 49,-8 78,-14 22,-4 29,-8 49,-15 27,-9 43,-17 67,-33 7,-4 15,-11 21,-16 6,-5 5,-5 10,-11 6,-7 1,-4 7,-6 6,-14 8,-19 13,-35l0 -20 -14 -31c-15,-21 -19,-17 -35,-34 -9,-4 -29,-14 -35,-19l-16 -8 -11 -3 4 16z"/>
 </g>
</svg>
