<?xml version="1.0" encoding="UTF-8"?>
<!DOCTYPE svg PUBLIC "-//W3C//DTD SVG 1.1//EN" "http://www.w3.org/Graphics/SVG/1.1/DTD/svg11.dtd">
<!-- Creator: CorelDRAW X8 -->
<svg xmlns="http://www.w3.org/2000/svg" xml:space="preserve" width="27.7577mm" height="27.7577mm" version="1.1" style="shape-rendering:geometricPrecision; text-rendering:geometricPrecision; image-rendering:optimizeQuality; fill-rule:evenodd; clip-rule:evenodd"
viewBox="0 0 624 624"
 xmlns:xlink="http://www.w3.org/1999/xlink">
 <defs>
  <style type="text/css">
   <![CDATA[
    .str1 {stroke:#373435;stroke-width:4.49775}
    .str0 {stroke:#373435;stroke-width:1.71364}
    .str2 {stroke:#5CC6D0;stroke-width:1.71364}
    .str3 {stroke:#448C8E;stroke-width:1.71364}
    .fil0 {fill:none}
    .fil1 {fill:#5CC6D0}
    .fil2 {fill:#448C8E}
    .fil4 {fill:#FBFBFB}
    .fil3 {fill:#FEFDFE}
   ]]>
  </style>
 </defs>
 <g id="Capa_x0020_1">
  <metadata id="CorelCorpID_0Corel-Layer"/>
  <g id="_2133738880000">
   <circle class="fil0 str0" cx="312" cy="312" r="311"/>
   <path class="fil0 str1" d="M16 407c166,-118 419,-123 590,7"/>
   <path class="fil1 str2" d="M16 407c166,-118 419,-123 590,7 11,-32 17,-66 17,-102 0,-172 -139,-311 -311,-311 -172,0 -311,139 -311,311 0,33 5,65 15,95z"/>
   <path class="fil2 str3" d="M606 414c-171,-130 -424,-125 -590,-7 40,126 157,216 296,216 136,0 252,-87 294,-209z"/>
  </g>
  <g id="_2133738881408">
   <path class="fil3" d="M289 359l163 0c2,-2 27,-65 27,-67 -16,10 -24,15 -44,18 -18,4 -38,2 -54,-5 -24,-9 -39,-23 -52,-42 -7,-10 -7,-14 -10,-21l-77 0c1,3 45,113 47,117z"/>
   <path class="fil3" d="M362 202c-1,-23 24,-51 51,-51l0 12 9 0 0 -12c28,1 52,27 51,51l-12 0 0 9 12 0c2,21 -22,51 -51,52l0 -13 -9 0 0 13c-15,-1 -29,-9 -36,-17 -8,-8 -16,-23 -15,-35l12 0 0 -9 -12 0zm137 10c1,-31 -10,-49 -25,-64 -15,-16 -36,-24 -66,-23 -32,6 -55,22 -67,52 -6,16 -7,34 -2,52 4,16 13,28 22,37 19,19 56,31 89,16 31,-14 45,-37 49,-70z"/>
   <path class="fil3" d="M191 253c1,1 30,69 33,76l25 57c3,5 6,14 9,19 4,1 41,1 48,0l147 0 0 -23 -180 0c-2,-3 -4,-8 -5,-11l-56 -129c-6,-12 -16,-37 -21,-47l-66 0 0 23 51 0 15 35z"/>
   <path class="fil3" d="M383 459c-1,4 -1,8 0,12 1,3 2,6 3,9 2,1 4,10 16,15 26,13 55,-10 50,-38 -5,-25 -36,-38 -58,-19 -6,6 -9,12 -11,21z"/>
   <path class="fil3" d="M330 444c-2,-1 -3,-3 -4,-4 -2,-2 -3,-3 -5,-4 -3,-3 -7,-4 -11,-6 -11,-1 -16,-2 -26,3 -22,11 -26,43 -4,60 21,15 51,2 55,-24 1,-5 1,-9 -1,-14 -1,-5 -3,-7 -4,-11z"/>
   <path class="fil4" d="M426 206c1,-3 9,-15 11,-19 3,-5 11,-15 6,-20 -7,-7 -13,6 -16,10 -3,6 -7,13 -11,19 -5,9 -8,11 0,19 5,5 10,9 15,14 8,8 16,-2 10,-9 -5,-4 -10,-9 -15,-14z"/>
  </g>
 </g>
</svg>
