<?xml version="1.0" encoding="UTF-8"?>
<!DOCTYPE svg PUBLIC "-//W3C//DTD SVG 1.1//EN" "http://www.w3.org/Graphics/SVG/1.1/DTD/svg11.dtd">
<!-- Creator: CorelDRAW X8 -->
<svg xmlns="http://www.w3.org/2000/svg" xml:space="preserve" width="51.3367mm" height="51.3367mm" version="1.1" style="shape-rendering:geometricPrecision; text-rendering:geometricPrecision; image-rendering:optimizeQuality; fill-rule:evenodd; clip-rule:evenodd"
viewBox="0 0 1724 1724"
 xmlns:xlink="http://www.w3.org/1999/xlink">
 <defs>
  <style type="text/css">
   <![CDATA[
    .str2 {stroke:#01A1F1;stroke-width:134.358}
    .str1 {stroke:#323232;stroke-width:2.55952}
    .str0 {stroke:#F95315;stroke-width:2.55952}
    .fil14 {fill:none}
    .fil0 {fill:#323232}
    .fil5 {fill:#323232}
    .fil1 {fill:#353535}
    .fil3 {fill:#363636}
    .fil12 {fill:#EDEDED}
    .fil13 {fill:#F2F3F3}
    .fil11 {fill:#F4F4F4}
    .fil9 {fill:#F55514}
    .fil8 {fill:#F7F7F7}
    .fil2 {fill:#F95315}
    .fil10 {fill:#F9F9F9}
    .fil6 {fill:#FBFBFB}
    .fil4 {fill:#FDFDFD}
    .fil7 {fill:#FEFEFE}
   ]]>
  </style>
 </defs>
 <g id="Capa_x0020_1">
  <metadata id="CorelCorpID_0Corel-Layer"/>
  <g id="_121958741216">
   <g>
    <path class="fil0" d="M1224 1017l4 5c11,-3 10,-15 19,-9 2,5 -7,12 -11,15 4,7 12,9 11,18 -9,3 -8,1 -19,-10 -16,-17 -19,-17 -7,-30 16,-16 19,-7 12,0 0,0 -3,3 -5,5 -4,4 -2,1 -4,6zm13 -34c2,0 10,-2 11,7 1,8 -1,3 -2,5 -6,2 -4,1 -11,-1l2 -11zm-683 -379c15,-4 19,2 16,16 -15,6 -24,0 -16,-16zm706 -77c-7,8 3,8 -13,25 -7,6 -34,29 -35,39l0 431c1,11 2,5 6,12 5,10 -1,7 7,12 6,3 8,2 12,7 -9,12 -10,-1 -23,1 -4,12 2,6 5,19 -9,6 -7,-8 -7,34 0,13 2,127 -2,135l-2 2 -624 0 -1 -97 0 -21 0 -62 0 -21 0 -417 0 -34 0 -14 0 -5 0 -15 0 -180c40,1 407,-1 408,0 1,1 3,-2 3,11l0 163c1,21 10,27 25,33l90 1c-7,-20 2,-22 -3,-34 -6,-14 -5,-17 3,-28 -13,-2 -43,3 -51,-3l0 -97c7,4 21,20 28,27 8,6 25,19 26,27 8,1 1,-1 13,9l10 9c10,-6 19,-21 30,-21 10,-1 13,4 20,5 4,1 17,-3 20,-5 -2,-2 -21,-21 -26,-25l-135 -129c-17,-11 -75,-6 -100,-6l-316 0c-119,0 -109,-12 -109,103l0 848c0,44 23,42 63,42l637 0c48,0 54,-6 54,-52l0 -688c0,-21 -2,-31 -13,-41z"/>
    <path class="fil1" d="M983 735l105 0c23,0 35,-2 43,-17 8,-18 -1,-36 -13,-42 -14,-8 -94,-4 -116,-4l-303 0c-54,-1 -48,51 -20,61 13,5 276,2 304,2z"/>
    <path class="fil2 str0" d="M990 983c-8,6 -16,12 -24,19 -8,8 -13,16 -23,20 -1,5 -2,4 -6,8 -1,2 -2,3 -4,4 -3,3 -1,2 -4,3 -2,6 0,2 -4,6l-25 29c-4,4 -1,2 -4,4 0,5 1,2 -2,3 -2,7 -6,10 -11,17l-8 12c-2,2 -2,1 -4,2 -5,-5 -11,-10 -14,-17 -4,-2 -11,-12 -14,-15 -6,-6 -11,-11 -16,-15 -8,-7 -28,-23 -39,-23 -8,2 -4,1 -11,1l-7 0c4,9 -7,5 9,6 7,1 4,-1 10,0 1,0 1,0 2,0 0,0 0,1 1,1l4 2c5,3 4,-1 4,5 -21,0 -13,-4 -21,0 -2,0 -3,2 -5,4 4,9 4,4 13,11 -2,7 -1,4 -6,8 10,2 5,-1 8,8 16,-11 10,-1 11,1l-6 5c-5,2 -3,2 -9,2 21,24 40,55 59,85 31,51 48,31 72,-13 17,-32 35,-60 54,-89l46 -63c3,-4 5,-6 8,-10 1,-1 4,-3 5,-5 0,0 1,-1 1,-2 3,-4 1,1 2,-3 1,-6 -5,1 2,-6l-4 -3c-1,-1 -1,-1 -1,-1 -3,-2 -2,-1 -4,-4 2,-13 8,-18 23,-14l-11 -12c-11,1 -39,22 -47,29z"/>
    <path class="fil1" d="M983 892c34,2 79,1 115,0 43,0 46,-48 16,-61 -9,-4 -208,-4 -231,-2 -4,10 -44,46 -53,56 -5,4 -4,6 -7,3 49,0 94,1 143,-1l7 1c-1,1 0,3 -8,-5 -15,-16 -23,-18 -25,-31 14,3 24,18 34,28 7,7 6,5 9,12z"/>
    <path class="fil3" d="M983 892c-3,-7 -2,-5 -9,-12 -10,-10 -20,-25 -34,-28 2,13 10,15 25,31 8,8 7,6 8,5l-7 -1c-49,2 -94,1 -143,1 3,3 2,1 7,-3 9,-10 49,-46 53,-56 -50,-2 -103,-1 -154,-1 -25,0 -49,-4 -63,12 -16,17 -5,42 12,50 12,5 270,2 305,2z"/>
    <path class="fil0" d="M1143 503c0,0 0,1 0,1 0,0 1,1 1,1l14 12c18,0 27,-3 36,12 7,13 2,29 -8,37 -23,17 -59,-11 -36,-42 -9,-1 -21,-2 -28,1 -4,1 -12,9 -12,15 0,10 8,8 5,23 -3,16 0,12 5,22l60 0c5,-9 15,-17 23,-25 16,-16 11,-10 37,-12 14,-20 15,-11 -13,-41 -3,-3 -20,-21 -24,-22 -9,-1 -10,5 -21,3 -18,-4 -7,-19 -39,15z"/>
    <path class="fil4" d="M628 1053c8,-1 14,0 19,5 11,9 16,19 13,34 -1,6 -5,10 -9,15l-4 4c-4,3 -1,3 -10,5 -45,9 -49,-46 -28,-59 8,-4 5,-1 11,-2l8 -2zm-45 11l0 62c7,5 32,32 39,32 2,-3 4,-6 9,-7 -2,-8 -2,-12 0,-19 2,-10 1,-8 7,-13 13,-13 28,-32 41,-33 15,-2 20,0 26,-10 -2,-2 -8,-8 -11,-11l-34 -33c-6,0 -9,2 -15,2 -13,0 -7,-1 -13,-4 -16,-8 -22,16 -44,31 -1,1 -1,6 -3,2 -1,0 -2,1 -2,1z"/>
    <path class="fil5 str1" d="M1135 496c4,6 1,4 8,7 32,-34 21,-19 39,-15 11,2 12,-4 21,-3 4,1 21,19 24,22 28,30 27,21 13,41 -26,2 -21,-4 -37,12 -8,8 -18,16 -23,25l29 0 0 10 0 427 0 6 1 41 -1 6c0,27 0,56 0,83 0,19 3,72 -1,86l2 -2c4,-8 2,-122 2,-135 0,-42 -2,-28 7,-34 -3,-13 -9,-7 -5,-19 13,-2 14,11 23,-1 -4,-5 -6,-4 -12,-7 -8,-5 -2,-2 -7,-12 -4,-7 -5,-1 -6,-12l0 -431c1,-10 28,-33 35,-39 16,-17 6,-17 13,-25 -6,-9 -19,-18 -27,-26 -9,-8 -18,-21 -28,-26 -3,2 -16,6 -20,5 -7,-1 -10,-6 -20,-5 -11,0 -20,15 -30,21z"/>
    <path class="fil6" d="M620 1055c-6,1 -3,-2 -11,2 -21,13 -17,68 28,59 9,-2 6,-2 10,-5l4 -4c4,-5 8,-9 9,-15 3,-15 -2,-25 -13,-34 -5,-5 -11,-6 -19,-5l-8 2z"/>
    <path class="fil5 str1" d="M1158 517c2,8 1,2 -1,5l-99 -1c8,6 38,1 51,3 -8,11 -9,14 -3,28 5,12 -4,14 3,34l11 -1c-5,-10 -8,-6 -5,-22 3,-15 -5,-13 -5,-23 0,-6 8,-14 12,-15 7,-3 19,-2 28,-1 -23,31 13,59 36,42 10,-8 15,-24 8,-37 -9,-15 -18,-12 -36,-12z"/>
    <path class="fil7" d="M1112 478c-2,1 1,-6 -2,5l-9 -8c-4,-2 -3,0 -4,0 -10,1 8,4 -2,0 1,-6 -1,-5 2,-8l-13 -3 1 -11c-10,1 -9,-1 -11,-4 0,-1 0,-1 -1,-1 0,0 -1,-1 -1,-2 0,0 -1,0 -1,-1l-7 -4c-1,0 -1,0 -3,0l0 73c13,0 30,-1 42,0 20,2 12,-9 22,-11 -1,0 -1,0 -1,0l-3 -3c-10,-10 5,2 -3,-10 -2,-2 3,-1 -5,-2 -5,-1 -3,0 -3,0 -2,0 1,5 -4,-2 8,3 1,1 4,-3 8,-12 -5,9 1,-3l1 -2z"/>
    <path class="fil8" d="M1127 589l46 0c-1,7 -1,25 -11,28 -5,2 -17,-15 -28,-25 -4,-4 -4,-4 -7,-3zm82 6l0 -10 -29 0 -60 0 -11 1 -90 -1c6,7 47,4 56,4 46,0 23,-5 63,31l6 6c3,3 12,8 21,7 11,-2 8,-6 14,-7 7,0 -4,2 3,1 2,-7 6,-13 13,-12 7,1 2,-3 5,3 -2,-21 2,-12 9,-23z"/>
    <path class="fil9" d="M740 1056c5,1 6,2 12,7 4,4 7,7 11,10 9,7 13,12 22,21 6,0 4,0 9,-2l6 -5c-1,-2 5,-12 -11,-1 -3,-9 2,-6 -8,-8 5,-4 4,-1 6,-8 -9,-7 -9,-2 -13,-11 2,-2 3,-4 5,-4 8,-4 0,0 21,0 0,-6 1,-2 -4,-5l-4 -2c-1,0 -1,-1 -1,-1 -1,0 -1,0 -2,0 -6,-1 -3,1 -10,0 -16,-1 -5,3 -9,-6l7 0c7,0 3,1 11,-1 -7,-8 -27,-11 -37,-13 -11,-1 -57,-5 -27,16 4,2 5,3 8,5l8 8z"/>
    <path class="fil10" d="M614 536c-6,-1 -8,-1 -13,1l-14 14c-4,7 2,7 -4,7l0 15c9,5 15,16 21,21 8,6 5,3 8,0 -1,-11 -10,0 -7,-17l4 -19c1,-7 -5,-2 1,-4 5,-2 -2,-1 3,0 -5,9 -6,9 -8,21 3,2 4,4 6,5l6 6c5,-2 8,-4 11,-8 6,-8 2,-6 11,-11l-7 -7 6 -3c0,-1 1,-3 2,-4 5,-6 11,-9 10,-15 -4,0 -7,2 -11,5 -5,4 -1,7 -10,1 -7,-8 7,-8 7,-21 -9,2 -12,9 -18,15l-4 -2z"/>
    <path class="fil10" d="M1112 478l-1 2c-6,12 7,-9 -1,3 -3,4 4,6 -4,3 5,7 2,2 4,2 0,0 -2,-1 3,0 8,1 3,0 5,2 8,12 -7,0 3,10l3 3c0,0 0,0 1,0 -10,2 -2,13 -22,11 -12,-1 -29,0 -42,0l0 -73c2,0 2,0 3,0l7 4c0,1 1,1 1,1 0,1 1,2 1,2 1,0 1,0 1,1 2,3 1,5 11,4l-1 11 13 3c-3,3 -1,2 -2,8 10,4 -8,1 2,0 1,0 0,-2 4,0l9 8c3,-11 0,-4 2,-5zm-54 43l99 1c2,-3 3,3 1,-5l-14 -12c0,0 -1,-1 -1,-1 0,0 0,-1 0,-1 -7,-3 -4,-1 -8,-7l-10 -9c-12,-10 -5,-8 -13,-9 -1,-8 -18,-21 -26,-27 -7,-7 -21,-23 -28,-27l0 97z"/>
    <path class="fil11" d="M649 491c14,3 2,1 13,-8 2,1 7,3 7,3 5,3 5,6 7,13l2 5c0,1 1,0 1,1l7 3c0,0 5,2 7,4 -8,0 -1,-1 -2,6 9,-3 26,-15 9,-29 5,-5 2,-3 6,-8 3,-6 2,-2 4,-9 -4,-4 -2,-2 -6,-5 -6,-4 -5,-1 -6,-7 7,-8 -7,5 4,-2 7,-6 8,-9 4,-19 -6,-2 -4,-2 -12,-1 -2,3 -1,0 -3,5 -7,18 -23,14 -22,37 -5,0 -11,-2 -17,5 -4,5 0,-1 -3,6z"/>
    <path class="fil8" d="M652 501l4 -3c1,-1 1,-1 1,-1 1,0 1,-1 1,-1 5,-3 -1,-1 6,-3l4 3c0,-1 1,0 2,1 0,1 2,9 -7,13 -2,1 -1,2 -5,1 -6,-1 -6,-7 -7,-9 0,0 1,-1 1,-1zm-3 -10c0,0 -1,0 -1,0l-5 2c-5,5 -10,18 2,19 -1,-1 -1,-2 -4,-2 -8,-3 -17,1 -21,7 -7,7 -3,1 -6,10 15,-2 5,-1 16,-9 5,-4 10,-2 13,1 8,8 -2,1 12,12 6,5 2,4 7,11l4 5c0,-6 1,-12 -2,-16 -4,4 13,17 17,-7 -3,-3 -2,-2 -5,-5l-2 -1c1,-2 -2,-4 7,0l11 1c0,0 -1,-1 -1,-1 1,-7 -6,-6 2,-6 -2,-2 -7,-4 -7,-4l-7 -3c0,-1 -1,0 -1,-1l-2 -5c-2,-7 -2,-10 -7,-13 0,0 -5,-2 -7,-3 -11,9 1,11 -13,8z"/>
    <path class="fil2 str0" d="M1037 954l11 12c-15,-4 -21,1 -23,14 2,3 1,2 4,4 0,0 0,0 1,1l4 3c-7,7 -1,0 -2,6 4,-2 1,0 5,-4 1,-1 2,-2 4,-4 2,-3 4,-4 5,-8 12,-7 14,-15 26,-22 3,-8 7,-4 6,-16 -8,-2 -15,1 -22,4 -9,3 -15,5 -19,10z"/>
    <path class="fil12" d="M614 536l4 2c6,-6 9,-13 18,-15 0,13 -14,13 -7,21 9,6 5,3 10,-1 4,-3 7,-5 11,-5 1,6 -5,9 -10,15 -1,1 -2,3 -2,4l-6 3 7 7c-9,5 -5,3 -11,11 -3,4 -6,6 -11,8l-6 -6c-2,-1 -3,-3 -6,-5 2,-12 3,-12 8,-21 -5,-1 2,-2 -3,0 -6,2 0,-3 -1,4l-4 19c-3,17 6,6 7,17 -3,3 0,6 -8,0 -6,-5 -12,-16 -21,-21l0 5c7,2 0,-1 9,7l15 15 10 -6c10,-5 -7,12 5,-6 1,-2 5,-6 6,-7 4,-4 8,-6 13,-8 1,-8 2,-6 -1,-11 11,4 21,-15 21,-17 -4,2 -1,0 -5,4 -5,5 -9,11 -13,10 -1,-4 2,-8 4,-10 6,-6 4,-1 8,-10 -15,-16 -15,7 -23,1 -5,-5 11,-4 5,-18 -11,-1 -9,7 -19,12 -1,-1 0,-1 -2,-3l-4 -4c-2,4 -3,5 2,9z"/>
    <path class="fil5" d="M1224 1017c2,-5 0,-2 4,-6 2,-2 5,-5 5,-5 7,-7 4,-16 -12,0 -12,13 -9,13 7,30 11,11 10,13 19,10 1,-9 -7,-11 -11,-18 4,-3 13,-10 11,-15 -9,-6 -8,6 -19,9l-4 -5z"/>
    <path class="fil10" d="M943 1022c10,-4 15,-12 23,-20 8,-7 16,-13 24,-19l0 -10c-9,2 -12,3 -14,13 -9,0 -10,-1 -17,1 -10,3 1,-4 -6,1 0,10 1,14 -3,24l-2 -1c-8,-3 -3,-3 -13,-2 8,9 4,10 8,13z"/>
    <path class="fil4" d="M1127 589c3,-1 3,-1 7,3 11,10 23,27 28,25 10,-3 10,-21 11,-28l-46 0z"/>
    <path class="fil10" d="M451 1390l6 6c6,5 18,14 24,15l-1 -9c0,-8 -1,-8 2,-17 -14,5 -13,4 -27,0 -3,3 -2,1 -4,5z"/>
    <path class="fil8" d="M857 1093c3,7 9,12 14,17 2,-1 2,0 4,-2l8 -12c5,-7 9,-10 11,-17 0,-4 0,-1 -3,-2 -6,5 -3,1 -11,4l0 12c-10,-5 -7,0 -23,0z"/>
    <path class="fil13" d="M583 626c0,0 1,-1 1,-1l4 -3c9,-8 19,-13 -1,-27 -3,-3 1,-1 -4,-3l0 34z"/>
    <path class="fil5 str1" d="M554 604c-8,16 1,22 16,16 3,-14 -1,-20 -16,-16z"/>
    <path class="fil13" d="M651 502c1,2 1,8 7,9 4,1 3,0 5,-1 9,-4 7,-12 7,-13 -1,-1 -2,-2 -2,-1l-4 -3c-7,2 -1,0 -6,3 0,0 0,1 -1,1 0,0 0,0 -1,1l-4 3c0,0 -1,1 -1,1z"/>
    <path class="fil5" d="M1246 995c1,-2 3,3 2,-5 -1,-9 -9,-7 -11,-7l-2 11c7,2 5,3 11,1z"/>
   </g>
   <circle class="fil14 str2" cx="862" cy="862" r="795"/>
  </g>
 </g>
</svg>
